<svg width="184" height="145" viewBox="0 0 184 145" fill="none" xmlns="http://www.w3.org/2000/svg">
<g clip-path="url(#clip0)">
<path d="M184 0H7.84131V116.211H184V0Z" fill="url(#paint0_linear)"/>
<path d="M182.018 13.73H9.38269V112.696H182.018V13.73Z" fill="white"/>
<path d="M182.018 2.41647H9.38269V13.73H182.018V2.41647Z" fill="#554AFF"/>
<path d="M180.036 20.8696H11.8048V107.204H180.036V20.8696Z" fill="url(#paint1_linear)"/>
<path opacity="0.5" d="M34.155 22.4074H13.8967V38.5539H34.155V22.4074Z" fill="#6C63FF"/>
<path d="M54.6335 22.4074H34.3752V38.5539H54.6335V22.4074Z" fill="white"/>
<path opacity="0.2" d="M75.1119 22.4074H54.8536V38.5539H75.1119V22.4074Z" fill="#6C63FF"/>
<path d="M95.5903 22.4074H75.332V38.5539H95.5903V22.4074Z" fill="white"/>
<path d="M116.069 22.4074H95.8105V38.5539H116.069V22.4074Z" fill="white"/>
<path opacity="0.5" d="M136.547 22.4074H116.289V38.5539H136.547V22.4074Z" fill="#6C63FF"/>
<path d="M157.026 22.4074H136.767V38.5539H157.026V22.4074Z" fill="white"/>
<path opacity="0.2" d="M177.504 22.4074H157.246V38.5539H177.504V22.4074Z" fill="#6C63FF"/>
<path opacity="0.2" d="M34.155 38.8834H13.8967V55.0299H34.155V38.8834Z" fill="#6C63FF"/>
<path opacity="0.2" d="M54.6335 38.8834H34.3752V55.0299H54.6335V38.8834Z" fill="#6C63FF"/>
<path d="M75.1119 38.8834H54.8536V55.0299H75.1119V38.8834Z" fill="white"/>
<path opacity="0.5" d="M95.5903 38.8834H75.332V55.0299H95.5903V38.8834Z" fill="#6C63FF"/>
<path d="M116.069 38.8834H95.8105V55.0299H116.069V38.8834Z" fill="white"/>
<path opacity="0.2" d="M136.547 38.8834H116.289V55.0299H136.547V38.8834Z" fill="#6C63FF"/>
<path opacity="0.5" d="M157.026 38.8834H136.767V55.0299H157.026V38.8834Z" fill="#6C63FF"/>
<path d="M177.504 38.8834H157.246V55.0299H177.504V38.8834Z" fill="white"/>
<path d="M34.155 55.1398H13.8967V71.2863H34.155V55.1398Z" fill="white"/>
<path d="M54.6335 55.1398H34.3752V71.2863H54.6335V55.1398Z" fill="white"/>
<path opacity="0.2" d="M75.1119 55.1398H54.8536V71.2863H75.1119V55.1398Z" fill="#6C63FF"/>
<path d="M95.5903 55.1398H75.332V71.2863H95.5903V55.1398Z" fill="white"/>
<path opacity="0.2" d="M116.069 55.1398H95.8105V71.2863H116.069V55.1398Z" fill="#6C63FF"/>
<path d="M136.547 55.1398H116.289V71.2863H136.547V55.1398Z" fill="white"/>
<path d="M157.026 55.1398H136.767V71.2863H157.026V55.1398Z" fill="white"/>
<path opacity="0.2" d="M177.504 55.1398H157.246V71.2863H177.504V55.1398Z" fill="#6C63FF"/>
<path d="M34.155 71.3961H13.8967V87.5426H34.155V71.3961Z" fill="white"/>
<path opacity="0.5" d="M54.6335 71.3961H34.3752V87.5426H54.6335V71.3961Z" fill="#6C63FF"/>
<path opacity="0.5" d="M75.1119 71.3961H54.8536V87.5426H75.1119V71.3961Z" fill="#6C63FF"/>
<path d="M95.5903 71.3961H75.332V87.5426H95.5903V71.3961Z" fill="white"/>
<path d="M116.069 71.3961H95.8105V87.5426H116.069V71.3961Z" fill="white"/>
<path opacity="0.5" d="M136.547 71.3961H116.289V87.5426H136.547V71.3961Z" fill="#6C63FF"/>
<path d="M157.026 71.3961H136.767V87.5426H157.026V71.3961Z" fill="white"/>
<path opacity="0.5" d="M177.504 71.3961H157.246V87.5426H177.504V71.3961Z" fill="#6C63FF"/>
<path opacity="0.5" d="M34.155 87.8721H13.8967V104.019H34.155V87.8721Z" fill="#6C63FF"/>
<path opacity="0.2" d="M54.6335 87.8721H34.3752V104.019H54.6335V87.8721Z" fill="#6C63FF"/>
<path d="M75.1119 87.8721H54.8536V104.019H75.1119V87.8721Z" fill="white"/>
<path opacity="0.5" d="M95.5903 87.8721H75.332V104.019H95.5903V87.8721Z" fill="#6C63FF"/>
<path opacity="0.2" d="M116.069 87.8721H95.8105V104.019H116.069V87.8721Z" fill="#6C63FF"/>
<path d="M136.547 87.8721H116.289V104.019H136.547V87.8721Z" fill="white"/>
<path opacity="0.2" d="M157.026 87.8721H136.767V104.019H157.026V87.8721Z" fill="#6C63FF"/>
<path d="M177.504 87.8721H157.246V104.019H177.504V87.8721Z" fill="white"/>
<path d="M21.7138 56.6775H15.5482V62.8286H21.7138V56.6775Z" fill="#FFD600"/>
<path d="M82.929 24.1648H76.7634V30.3159H82.929V24.1648Z" fill="#FFD600"/>
<path d="M82.2683 56.6775H76.1028V62.8286H82.2683V56.6775Z" fill="#FFD600"/>
<path d="M103.187 72.2748H97.0216V78.4259H103.187V72.2748Z" fill="#FFD600"/>
<path d="M143.924 56.6775H137.758V62.8286H143.924V56.6775Z" fill="#FFD600"/>
<path d="M37.775 145C58.6376 145 75.5501 128.127 75.5501 107.314C75.5501 86.5004 58.6376 69.6277 37.775 69.6277C16.9125 69.6277 0 86.5004 0 107.314C0 128.127 16.9125 145 37.775 145Z" fill="url(#paint2_linear)"/>
<path d="M37.775 143.983C58.0746 143.983 74.5306 127.566 74.5306 107.314C74.5306 87.0621 58.0746 70.6448 37.775 70.6448C17.4755 70.6448 1.01953 87.0621 1.01953 107.314C1.01953 127.566 17.4755 143.983 37.775 143.983Z" fill="#4D41FF"/>
<path d="M37.7751 137.107C54.2681 137.107 67.6384 123.768 67.6384 107.314C67.6384 90.8596 54.2681 77.5208 37.7751 77.5208C21.282 77.5208 7.91174 90.8596 7.91174 107.314C7.91174 123.768 21.282 137.107 37.7751 137.107Z" fill="white"/>
<path d="M37.7751 109.095C38.7613 109.095 39.5609 108.298 39.5609 107.314C39.5609 106.33 38.7613 105.532 37.7751 105.532C36.7888 105.532 35.9893 106.33 35.9893 107.314C35.9893 108.298 36.7888 109.095 37.7751 109.095Z" fill="url(#paint3_linear)"/>
<path d="M38.4489 107.533L37.3479 107.164L47.2568 84.0277L48.3578 84.544L38.4489 107.533Z" fill="url(#paint4_linear)"/>
<path d="M47.3744 84.2403L37.6755 107.158L38.3815 107.455L48.0804 84.5377L47.3744 84.2403Z" fill="#2196F3"/>
<path d="M43.9539 119.616L37.5681 107.753L38.4489 107.314L45.0549 118.957L43.9539 119.616Z" fill="url(#paint5_linear)"/>
<path d="M38.3635 107.393L37.6902 107.758L44.071 119.473L44.7443 119.108L38.3635 107.393Z" fill="#2196F3"/>
<path d="M65.5971 108.843C66.0203 108.843 66.3634 108.501 66.3634 108.078C66.3634 107.656 66.0203 107.314 65.5971 107.314C65.1739 107.314 64.8308 107.656 64.8308 108.078C64.8308 108.501 65.1739 108.843 65.5971 108.843Z" fill="#6C63FF"/>
<path d="M14.672 94.084C14.9468 93.609 14.7837 93.0018 14.3077 92.7276C13.8316 92.4534 13.2229 92.6161 12.9481 93.091C12.6732 93.5659 12.8364 94.1732 13.3124 94.4474C13.7884 94.7216 14.3972 94.5589 14.672 94.084Z" fill="url(#paint6_linear)"/>
<path d="M14.5623 122.712C15.0384 122.438 15.2015 121.83 14.9266 121.355C14.6518 120.88 14.0431 120.718 13.567 120.992C13.091 121.266 12.9279 121.873 13.2027 122.348C13.4776 122.823 14.0863 122.986 14.5623 122.712Z" fill="url(#paint7_linear)"/>
<path d="M9.95514 109.071C10.5048 109.071 10.9504 108.627 10.9504 108.078C10.9504 107.53 10.5048 107.085 9.95514 107.085C9.40545 107.085 8.95984 107.53 8.95984 108.078C8.95984 108.627 9.40545 109.071 9.95514 109.071Z" fill="url(#paint8_linear)"/>
<path d="M24.4647 84.2621C24.9407 83.9879 25.1038 83.3806 24.829 82.9057C24.5541 82.4307 23.9454 82.268 23.4694 82.5422C22.9933 82.8164 22.8302 83.4237 23.1051 83.8986C23.3799 84.3735 23.9886 84.5363 24.4647 84.2621Z" fill="url(#paint9_linear)"/>
<path d="M38.2479 80.6984C38.7239 80.4242 38.887 79.8169 38.6122 79.342C38.3373 78.8671 37.7286 78.7044 37.2526 78.9786C36.7765 79.2528 36.6134 79.86 36.8883 80.335C37.1631 80.8099 37.7718 80.9726 38.2479 80.6984Z" fill="url(#paint10_linear)"/>
<path d="M52.0308 84.2632C52.5069 83.989 52.67 83.3817 52.3951 82.9068C52.1203 82.4318 51.5116 82.2691 51.0355 82.5433C50.5595 82.8175 50.3964 83.4248 50.6712 83.8997C50.9461 84.3747 51.5548 84.5374 52.0308 84.2632Z" fill="url(#paint11_linear)"/>
<path d="M62.2401 94.4492C62.7161 94.175 62.8792 93.5678 62.6044 93.0928C62.3295 92.6179 61.7208 92.4552 61.2448 92.7294C60.7687 93.0036 60.6056 93.6109 60.8805 94.0858C61.1553 94.5607 61.764 94.7234 62.2401 94.4492Z" fill="url(#paint12_linear)"/>
<path d="M61.9859 122.714C62.4619 122.44 62.625 121.832 62.3502 121.358C62.0754 120.883 61.4666 120.72 60.9906 120.994C60.5146 121.268 60.3515 121.876 60.6263 122.35C60.9011 122.825 61.5099 122.988 61.9859 122.714Z" fill="url(#paint13_linear)"/>
<path d="M51.5202 132.644C51.9962 132.37 52.1593 131.763 51.8845 131.288C51.6097 130.813 51.001 130.65 50.5249 130.924C50.0489 131.199 49.8858 131.806 50.1606 132.281C50.4355 132.756 51.0442 132.918 51.5202 132.644Z" fill="url(#paint14_linear)"/>
<path d="M38.2468 135.701C38.7228 135.427 38.8859 134.82 38.6111 134.345C38.3362 133.87 37.7275 133.707 37.2515 133.981C36.7754 134.256 36.6123 134.863 36.8872 135.338C37.162 135.813 37.7707 135.975 38.2468 135.701Z" fill="url(#paint15_linear)"/>
<path d="M24.9754 132.645C25.4515 132.371 25.6146 131.764 25.3397 131.289C25.0649 130.814 24.4562 130.651 23.9801 130.925C23.5041 131.2 23.341 131.807 23.6158 132.282C23.8907 132.757 24.4994 132.919 24.9754 132.645Z" fill="url(#paint16_linear)"/>
<path d="M37.7751 80.5766C38.1983 80.5766 38.5414 80.2343 38.5414 79.8121C38.5414 79.3899 38.1983 79.0476 37.7751 79.0476C37.3519 79.0476 37.0088 79.3899 37.0088 79.8121C37.0088 80.2343 37.3519 80.5766 37.7751 80.5766Z" fill="#69F0AE"/>
<path d="M52.2219 83.8781C52.4335 83.5125 52.3079 83.0449 51.9414 82.8338C51.5749 82.6227 51.1062 82.748 50.8946 83.1136C50.683 83.4793 50.8086 83.9468 51.1751 84.1579C51.5416 84.369 52.0103 84.2438 52.2219 83.8781Z" fill="#69F0AE"/>
<path d="M62.0304 94.2253C62.3969 94.0142 62.5225 93.5466 62.3109 93.181C62.0993 92.8153 61.6306 92.69 61.2641 92.9011C60.8976 93.1122 60.772 93.5798 60.9836 93.9455C61.1952 94.3111 61.6639 94.4364 62.0304 94.2253Z" fill="#69F0AE"/>
<path d="M62.1513 122.235C62.3629 121.869 62.2373 121.401 61.8708 121.19C61.5043 120.979 61.0357 121.104 60.8241 121.47C60.6125 121.836 60.738 122.303 61.1045 122.514C61.471 122.725 61.9397 122.6 62.1513 122.235Z" fill="#69F0AE"/>
<path d="M51.4056 132.394C51.7721 132.183 51.8977 131.715 51.6861 131.35C51.4745 130.984 51.0058 130.859 50.6393 131.07C50.2728 131.281 50.1472 131.749 50.3589 132.114C50.5705 132.48 51.0391 132.605 51.4056 132.394Z" fill="#69F0AE"/>
<path d="M24.3745 84.1603C24.741 83.9492 24.8666 83.4816 24.655 83.116C24.4434 82.7503 23.9747 82.625 23.6082 82.8361C23.2417 83.0472 23.1161 83.5148 23.3277 83.8805C23.5393 84.2461 24.008 84.3714 24.3745 84.1603Z" fill="#69F0AE"/>
<path d="M14.5672 93.9459C14.7788 93.5802 14.6532 93.1127 14.2867 92.9016C13.9202 92.6905 13.4516 92.8157 13.24 93.1814C13.0284 93.547 13.1539 94.0146 13.5204 94.2257C13.8869 94.4368 14.3556 94.3115 14.5672 93.9459Z" fill="#69F0AE"/>
<path d="M66.0705 108.964C66.5466 108.69 66.7097 108.083 66.4348 107.608C66.16 107.133 65.5513 106.97 65.0752 107.244C64.5992 107.519 64.4361 108.126 64.7109 108.601C64.9857 109.076 65.5945 109.238 66.0705 108.964Z" fill="#69F0AE"/>
<path d="M14.4479 122.514C14.8144 122.303 14.9399 121.835 14.7283 121.47C14.5167 121.104 14.0481 120.979 13.6816 121.19C13.3151 121.401 13.1895 121.868 13.4011 122.234C13.6127 122.6 14.0814 122.725 14.4479 122.514Z" fill="#69F0AE"/>
<path d="M25.1911 132.115C25.4027 131.75 25.2771 131.282 24.9106 131.071C24.5441 130.86 24.0755 130.985 23.8639 131.351C23.6523 131.716 23.7778 132.184 24.1443 132.395C24.5108 132.606 24.9795 132.481 25.1911 132.115Z" fill="#69F0AE"/>
<path d="M9.95513 108.843C10.3783 108.843 10.7214 108.501 10.7214 108.078C10.7214 107.656 10.3783 107.314 9.95513 107.314C9.53192 107.314 9.18884 107.656 9.18884 108.078C9.18884 108.501 9.53192 108.843 9.95513 108.843Z" fill="#69F0AE"/>
<path d="M37.7751 135.578C38.1983 135.578 38.5414 135.236 38.5414 134.813C38.5414 134.391 38.1983 134.049 37.7751 134.049C37.3519 134.049 37.0088 134.391 37.0088 134.813C37.0088 135.236 37.3519 135.578 37.7751 135.578Z" fill="#69F0AE"/>
<path opacity="0.2" d="M9.44437 110.115C9.44634 103.55 11.6216 97.1689 15.6321 91.9638C19.6426 86.7588 25.264 83.0208 31.6228 81.3307C37.9817 79.6405 44.722 80.0927 50.7967 82.6172C56.8714 85.1416 61.9404 89.5968 65.2162 95.2908C63.6088 91.5656 61.256 88.207 58.302 85.4208C55.348 82.6345 51.8549 80.4791 48.0368 79.0867C44.2186 77.6944 40.1557 77.0942 36.097 77.3231C32.0382 77.552 28.069 78.6051 24.4324 80.4179C20.7959 82.2307 17.5686 84.765 14.9481 87.8657C12.3277 90.9663 10.3693 94.5681 9.19286 98.4502C8.01645 102.332 7.64679 106.413 8.10653 110.443C8.56627 114.473 9.84573 118.366 11.8665 121.885C10.2635 118.167 9.43924 114.162 9.44437 110.115Z" fill="#6C63FF"/>
<path d="M37.7751 108.588C38.4804 108.588 39.0522 108.017 39.0522 107.314C39.0522 106.61 38.4804 106.04 37.7751 106.04C37.0697 106.04 36.4979 106.61 36.4979 107.314C36.4979 108.017 37.0697 108.588 37.7751 108.588Z" fill="#69F0AE"/>
</g>
<defs>
<linearGradient id="paint0_linear" x1="95.9207" y1="116.211" x2="95.9207" y2="0" gradientUnits="userSpaceOnUse">
<stop stop-color="#808080" stop-opacity="0.25"/>
<stop offset="0.54" stop-color="#808080" stop-opacity="0.12"/>
<stop offset="1" stop-color="#808080" stop-opacity="0.1"/>
</linearGradient>
<linearGradient id="paint1_linear" x1="73295.2" y1="42152" x2="73295.2" y2="8222.64" gradientUnits="userSpaceOnUse">
<stop stop-color="#808080" stop-opacity="0.25"/>
<stop offset="0.54" stop-color="#808080" stop-opacity="0.12"/>
<stop offset="1" stop-color="#808080" stop-opacity="0.1"/>
</linearGradient>
<linearGradient id="paint2_linear" x1="12960.6" y1="49819.1" x2="12960.6" y2="23958.9" gradientUnits="userSpaceOnUse">
<stop stop-color="#808080" stop-opacity="0.25"/>
<stop offset="0.54" stop-color="#808080" stop-opacity="0.12"/>
<stop offset="1" stop-color="#808080" stop-opacity="0.1"/>
</linearGradient>
<linearGradient id="paint3_linear" x1="648.701" y1="1875.07" x2="648.701" y2="1817.23" gradientUnits="userSpaceOnUse">
<stop stop-color="#808080" stop-opacity="0.25"/>
<stop offset="0.54" stop-color="#808080" stop-opacity="0.12"/>
<stop offset="1" stop-color="#808080" stop-opacity="0.1"/>
</linearGradient>
<linearGradient id="paint4_linear" x1="2179.99" y1="11590.1" x2="2179.99" y2="9074.98" gradientUnits="userSpaceOnUse">
<stop stop-color="#808080" stop-opacity="0.25"/>
<stop offset="0.54" stop-color="#808080" stop-opacity="0.12"/>
<stop offset="1" stop-color="#808080" stop-opacity="0.1"/>
</linearGradient>
<linearGradient id="paint5_linear" x1="1442.16" y1="6805.79" x2="1442.16" y2="6116.87" gradientUnits="userSpaceOnUse">
<stop stop-color="#808080" stop-opacity="0.25"/>
<stop offset="0.54" stop-color="#808080" stop-opacity="0.12"/>
<stop offset="1" stop-color="#808080" stop-opacity="0.1"/>
</linearGradient>
<linearGradient id="paint6_linear" x1="-806.979" y1="1666.53" x2="-791.431" y2="1657.53" gradientUnits="userSpaceOnUse">
<stop stop-color="#808080" stop-opacity="0.25"/>
<stop offset="0.54" stop-color="#808080" stop-opacity="0.12"/>
<stop offset="1" stop-color="#808080" stop-opacity="0.1"/>
</linearGradient>
<linearGradient id="paint7_linear" x1="502.893" y1="1469.61" x2="502.893" y2="1451.68" gradientUnits="userSpaceOnUse">
<stop stop-color="#808080" stop-opacity="0.25"/>
<stop offset="0.54" stop-color="#808080" stop-opacity="0.12"/>
<stop offset="1" stop-color="#808080" stop-opacity="0.1"/>
</linearGradient>
<linearGradient id="paint8_linear" x1="-155.781" y1="1699.69" x2="-146.815" y2="1684.13" gradientUnits="userSpaceOnUse">
<stop stop-color="#808080" stop-opacity="0.25"/>
<stop offset="0.54" stop-color="#808080" stop-opacity="0.12"/>
<stop offset="1" stop-color="#808080" stop-opacity="0.1"/>
</linearGradient>
<linearGradient id="paint9_linear" x1="-1359.82" y1="1283.14" x2="-1341.82" y2="1283.14" gradientUnits="userSpaceOnUse">
<stop stop-color="#808080" stop-opacity="0.25"/>
<stop offset="0.54" stop-color="#808080" stop-opacity="0.12"/>
<stop offset="1" stop-color="#808080" stop-opacity="0.1"/>
</linearGradient>
<linearGradient id="paint10_linear" x1="-1231.65" y1="1264.68" x2="-1213.66" y2="1264.68" gradientUnits="userSpaceOnUse">
<stop stop-color="#808080" stop-opacity="0.25"/>
<stop offset="0.54" stop-color="#808080" stop-opacity="0.12"/>
<stop offset="1" stop-color="#808080" stop-opacity="0.1"/>
</linearGradient>
<linearGradient id="paint11_linear" x1="-1110.62" y1="1310.65" x2="-1092.64" y2="1310.65" gradientUnits="userSpaceOnUse">
<stop stop-color="#808080" stop-opacity="0.25"/>
<stop offset="0.54" stop-color="#808080" stop-opacity="0.12"/>
<stop offset="1" stop-color="#808080" stop-opacity="0.1"/>
</linearGradient>
<linearGradient id="paint12_linear" x1="-1028.53" y1="1412.92" x2="-1010.53" y2="1412.92" gradientUnits="userSpaceOnUse">
<stop stop-color="#808080" stop-opacity="0.25"/>
<stop offset="0.54" stop-color="#808080" stop-opacity="0.12"/>
<stop offset="1" stop-color="#808080" stop-opacity="0.1"/>
</linearGradient>
<linearGradient id="paint13_linear" x1="-1059.18" y1="1668.16" x2="-1041.18" y2="1668.16" gradientUnits="userSpaceOnUse">
<stop stop-color="#808080" stop-opacity="0.25"/>
<stop offset="0.54" stop-color="#808080" stop-opacity="0.12"/>
<stop offset="1" stop-color="#808080" stop-opacity="0.1"/>
</linearGradient>
<linearGradient id="paint14_linear" x1="-1163.72" y1="1747.49" x2="-1145.74" y2="1747.49" gradientUnits="userSpaceOnUse">
<stop stop-color="#808080" stop-opacity="0.25"/>
<stop offset="0.54" stop-color="#808080" stop-opacity="0.12"/>
<stop offset="1" stop-color="#808080" stop-opacity="0.1"/>
</linearGradient>
<linearGradient id="paint15_linear" x1="-1286.79" y1="1761.88" x2="-1268.79" y2="1761.88" gradientUnits="userSpaceOnUse">
<stop stop-color="#808080" stop-opacity="0.25"/>
<stop offset="0.54" stop-color="#808080" stop-opacity="0.12"/>
<stop offset="1" stop-color="#808080" stop-opacity="0.1"/>
</linearGradient>
<linearGradient id="paint16_linear" x1="-1403.69" y1="1721.03" x2="-1385.72" y2="1721.03" gradientUnits="userSpaceOnUse">
<stop stop-color="#808080" stop-opacity="0.25"/>
<stop offset="0.54" stop-color="#808080" stop-opacity="0.12"/>
<stop offset="1" stop-color="#808080" stop-opacity="0.1"/>
</linearGradient>
<clipPath id="clip0">
<rect width="184" height="145" fill="white"/>
</clipPath>
</defs>
</svg>
