<svg width="588" height="439" viewBox="0 0 588 439" fill="none" xmlns="http://www.w3.org/2000/svg">
<g clip-path="url(#clip0)">
<path opacity="0.1" d="M59.1433 43.958C55.4837 45.4815 51.7277 47.4369 49.7166 50.8646C47.5866 54.4855 47.8415 58.9819 48.238 63.1713C51.6937 99.5059 60.7975 138.148 45.0769 171.061C37.4461 187.029 24.6827 199.824 14.5309 214.325C4.37908 228.826 -3.28576 246.931 1.42758 263.99C7.18329 284.834 28.6652 296.391 43.1451 312.432C52.6228 322.92 59.2679 335.664 68.1111 346.697C76.9543 357.731 89.0719 367.451 103.189 368.099C123.493 369.037 140.012 351.444 159.919 347.368C180.313 343.196 200.849 353.814 217.386 366.525C233.922 379.235 248.963 394.634 268.23 402.569C289.508 411.34 313.493 409.999 335.893 415.268C356.287 420.072 375.061 430.286 395.308 435.732C415.555 441.178 439.286 440.848 454.973 426.938C475.418 408.748 473.809 376.347 486.867 352.285C498.996 329.928 522.738 316.582 538.72 296.817C567.476 261.244 566.535 206.873 542.119 168.185C517.702 129.497 473.475 106.071 428.251 99.9721C407.857 97.2265 386.856 97.6017 367.249 91.3545C314.768 74.6424 283.537 14.763 229.956 2.30281C195.898 -5.60418 162.774 8.08952 133.764 24.9437C108.582 39.5754 85.3499 33.0497 59.1433 43.958Z" fill="black"/>
<path d="M110.287 161.34C110.287 161.34 90.9526 179.65 70.2015 180.195C61.4875 180.369 53.065 183.375 46.1986 188.762C42.953 191.336 39.9493 194.204 37.2251 197.328" stroke="#535461" stroke-width="2" stroke-miterlimit="10"/>
<path d="M24.1389 197.777C26.9261 196.356 37.5651 197.3 37.5651 197.3C37.5651 197.3 32.0473 206.48 29.2601 207.901C28.5925 208.298 27.8508 208.553 27.081 208.651C26.3111 208.748 25.5294 208.686 24.7845 208.468C24.0396 208.25 23.3472 207.881 22.7504 207.383C22.1536 206.885 21.6651 206.27 21.3151 205.575C20.9651 204.88 20.7611 204.12 20.7158 203.343C20.6705 202.566 20.7849 201.787 21.0518 201.056C21.3187 200.325 21.7324 199.657 22.2673 199.093C22.8023 198.529 23.447 198.081 24.1615 197.777H24.1389Z" fill="#6C63FF"/>
<path d="M35.3387 181.548C38.4488 181.878 46.8671 188.472 46.8671 188.472C46.8671 188.472 37.2365 193.167 34.1547 192.843C32.7129 192.624 31.4106 191.856 30.5188 190.699C29.627 189.541 29.2145 188.083 29.367 186.628C29.5196 185.173 30.2254 183.833 31.3377 182.886C32.45 181.94 33.8831 181.461 35.3387 181.548Z" fill="#6C63FF"/>
<path d="M61.8965 168.468C64.4118 170.327 68.366 180.286 68.366 180.286C68.366 180.286 57.71 179.473 55.1947 177.62C54.061 176.701 53.3239 175.379 53.1368 173.929C52.9496 172.478 53.3267 171.011 54.1898 169.833C55.0528 168.654 56.3353 167.855 57.7706 167.601C59.2059 167.347 60.6836 167.657 61.8965 168.468Z" fill="#6C63FF"/>
<path d="M84.2113 163.119C87.0042 164.523 92.5786 173.67 92.5786 173.67C92.5786 173.67 81.9396 174.676 79.1467 173.272C78.442 172.963 77.8074 172.513 77.2814 171.951C76.7554 171.388 76.3491 170.724 76.0873 169.998C75.8254 169.273 75.7135 168.501 75.7583 167.731C75.8031 166.961 76.0037 166.208 76.3479 165.518C76.6921 164.828 77.1726 164.216 77.7603 163.718C78.3479 163.22 79.0304 162.848 79.7661 162.624C80.5018 162.399 81.2753 162.327 82.0395 162.413C82.8037 162.498 83.5427 162.738 84.2113 163.119Z" fill="#6C63FF"/>
<path d="M52.7871 198.823C53.7161 195.827 50.9969 185.459 50.9969 185.459C50.9969 185.459 42.9072 192.462 41.9781 195.458C41.7163 196.181 41.6035 196.95 41.6465 197.718C41.6895 198.486 41.8874 199.237 42.2283 199.926C42.5691 200.615 43.0458 201.228 43.6295 201.727C44.2132 202.225 44.8916 202.6 45.6239 202.828C46.3561 203.056 47.1268 203.133 47.8894 203.053C48.6519 202.973 49.3904 202.739 50.0601 202.365C50.7298 201.99 51.3168 201.483 51.7856 200.874C52.2543 200.266 52.595 199.568 52.7871 198.823Z" fill="#6C63FF"/>
<path d="M78.8067 192.212C78.8067 189.074 73.1133 180.002 73.1133 180.002C73.1133 180.002 67.4823 189.097 67.4879 192.246C67.4924 193.754 68.0936 195.198 69.1592 196.261C70.2248 197.324 71.6675 197.918 73.17 197.914C74.6724 197.909 76.1116 197.306 77.1708 196.237C78.23 195.167 78.8226 193.72 78.8181 192.212H78.8067Z" fill="#6C63FF"/>
<path d="M103.218 182.344C103.739 179.252 99.6599 169.344 99.6599 169.344C99.6599 169.344 92.5729 177.37 92.0574 180.462C91.8833 181.913 92.2727 183.376 93.1447 184.546C94.0167 185.716 95.3043 186.505 96.7404 186.747C98.1764 186.99 99.6505 186.669 100.857 185.85C102.063 185.031 102.908 183.778 103.218 182.35V182.344Z" fill="#6C63FF"/>
<path d="M135.412 112.852C135.412 112.852 112.123 100.017 105.2 80.3546C102.356 72.0865 96.9154 64.9675 89.695 60.067C86.2494 57.7664 82.601 55.7876 78.7954 54.1552" stroke="#535461" stroke-width="2" stroke-miterlimit="10"/>
<path d="M74.3767 41.7917C76.5804 44.0143 78.9541 54.4678 78.9541 54.4678C78.9541 54.4678 68.553 52.0236 66.3493 49.7953C65.3761 48.7109 64.8559 47.2925 64.8962 45.8338C64.9366 44.3751 65.5345 42.9878 66.5661 41.9592C67.5977 40.9307 68.984 40.3396 70.438 40.3084C71.892 40.2772 73.3022 40.8083 74.3767 41.7917Z" fill="#6C63FF"/>
<path d="M93.213 47.4931C93.8588 50.5627 90.1935 60.6297 90.1935 60.6297C90.1935 60.6297 82.7893 52.9046 82.1435 49.8294C81.9518 49.0857 81.9123 48.3107 82.0274 47.5512C82.1426 46.7917 82.4099 46.0636 82.8134 45.4107C83.2168 44.7578 83.7479 44.1937 84.3746 43.7526C85.0014 43.3114 85.7108 43.0023 86.4599 42.8439C87.209 42.6854 87.9824 42.681 88.7332 42.8309C89.4841 42.9808 90.1969 43.2818 90.8286 43.7158C91.4603 44.1498 91.9978 44.7078 92.4086 45.356C92.8194 46.0042 93.095 46.7293 93.2187 47.4874L93.213 47.4931Z" fill="#6C63FF"/>
<path d="M113.777 68.8607C112.792 71.8337 104.56 78.672 104.56 78.672C104.56 78.672 102.056 68.2525 103.042 65.2739C103.516 63.8417 104.538 62.6571 105.882 61.9807C107.227 61.3043 108.784 61.1915 110.211 61.6671C111.638 62.1428 112.819 63.1679 113.493 64.5169C114.167 65.866 114.28 67.4285 113.806 68.8607H113.777Z" fill="#6C63FF"/>
<path d="M125.719 88.5003C125.249 91.5983 118.287 99.7327 118.287 99.7327C118.287 99.7327 114.06 89.8873 114.531 86.7893C114.609 86.0237 114.841 85.282 115.214 84.6092C115.587 83.9364 116.091 83.3465 116.698 82.8753C117.304 82.4041 118 82.0614 118.742 81.868C119.485 81.6745 120.259 81.6344 121.017 81.75C121.775 81.8656 122.502 82.1345 123.154 82.5404C123.806 82.9463 124.368 83.4808 124.808 84.1115C125.248 84.7421 125.555 85.4558 125.712 86.2092C125.868 86.9627 125.871 87.7402 125.719 88.4946V88.5003Z" fill="#6C63FF"/>
<path d="M82.1888 69.469C85.316 69.4349 94.3121 63.6481 94.3121 63.6481C94.3121 63.6481 85.1857 58.0774 82.0585 58.1115C80.5561 58.1289 79.122 58.7444 78.0718 59.8227C77.0216 60.901 76.4413 62.3537 76.4586 63.8613C76.4759 65.3689 77.0893 66.8079 78.164 67.8616C79.2386 68.9154 80.6864 69.4977 82.1888 69.4803V69.469Z" fill="#6C63FF"/>
<path d="M96.4421 92.2861C99.4106 91.3141 106.271 83.0945 106.271 83.0945C106.271 83.0945 95.8982 80.5194 92.9297 81.4915C92.1972 81.7012 91.5143 82.0571 90.922 82.5378C90.3297 83.0184 89.8401 83.6141 89.4824 84.289C89.1248 84.9639 88.9065 85.7042 88.8406 86.4658C88.7747 87.2273 88.8625 87.9943 89.0988 88.721C89.3351 89.4477 89.7151 90.1191 90.216 90.695C90.7168 91.271 91.3283 91.7396 92.0139 92.073C92.6994 92.4063 93.4449 92.5975 94.2057 92.6351C94.9666 92.6727 95.7272 92.556 96.4421 92.2918V92.2861Z" fill="#6C63FF"/>
<path d="M113.324 112.557C116.417 112.102 124.563 105.167 124.563 105.167C124.563 105.167 114.774 100.87 111.687 101.324C110.926 101.403 110.19 101.635 109.521 102.007C108.853 102.379 108.266 102.883 107.796 103.488C107.327 104.093 106.985 104.788 106.79 105.53C106.595 106.271 106.552 107.045 106.663 107.804C106.773 108.563 107.036 109.291 107.435 109.945C107.834 110.6 108.361 111.166 108.984 111.611C109.607 112.055 110.313 112.369 111.06 112.532C111.807 112.696 112.579 112.706 113.33 112.562L113.324 112.557Z" fill="#6C63FF"/>
<path d="M295.683 424.289C408.943 424.289 500.758 332.16 500.758 218.514C500.758 104.867 408.943 12.7387 295.683 12.7387C182.422 12.7387 90.6071 104.867 90.6071 218.514C90.6071 332.16 182.422 424.289 295.683 424.289Z" fill="url(#paint0_linear)"/>
<path d="M295.683 420.878C407.065 420.878 497.359 330.276 497.359 218.514C497.359 106.751 407.065 16.1494 295.683 16.1494C184.3 16.1494 94.0061 106.751 94.0061 218.514C94.0061 330.276 184.3 420.878 295.683 420.878Z" fill="#6C63FF"/>
<path d="M295.682 379.382C384.226 379.382 456.004 307.359 456.004 218.514C456.004 129.669 384.226 57.6454 295.682 57.6454C207.139 57.6454 135.361 129.669 135.361 218.514C135.361 307.359 207.139 379.382 295.682 379.382Z" fill="#F1F1FF"/>
<path opacity="0.3" d="M300.215 86.0674H291.151V228.177H300.215V86.0674Z" fill="#535461"/>
<g opacity="0.1">
<path opacity="0.1" d="M433.344 215.103H305.313V226.472H433.344V215.103Z" fill="black"/>
<path opacity="0.1" d="M214.93 172.573L209.666 182.641L290.256 224.909L295.52 214.842L214.93 172.573Z" fill="black"/>
<path opacity="0.1" d="M295.683 237.841C305.069 237.841 312.678 230.206 312.678 220.788C312.678 211.369 305.069 203.734 295.683 203.734C286.296 203.734 278.687 211.369 278.687 220.788C278.687 230.206 286.296 237.841 295.683 237.841Z" fill="black"/>
</g>
<path d="M433.344 212.829H305.313V224.198H433.344V212.829Z" fill="#535461"/>
<path d="M295.518 212.639L214.959 170.308L209.703 180.38L290.261 222.71L295.518 212.639Z" fill="#535461"/>
<path d="M295.683 235.567C305.069 235.567 312.678 227.932 312.678 218.514C312.678 209.096 305.069 201.461 295.683 201.461C286.296 201.461 278.687 209.096 278.687 218.514C278.687 227.932 286.296 235.567 295.683 235.567Z" fill="#535461"/>
<g opacity="0.1">
<path opacity="0.1" d="M147.813 237.841C147.813 148.994 219.589 76.9724 308.134 76.9724C332.987 76.9503 357.503 82.735 379.741 93.8683C401.979 105.002 421.328 121.178 436.255 141.115C408.973 91.3652 356.287 57.6454 295.671 57.6454C207.126 57.6454 135.35 129.667 135.35 218.514C135.298 253.417 146.611 287.382 167.567 315.239C154.571 291.529 147.775 264.901 147.813 237.841Z" fill="black"/>
</g>
<path d="M443.813 100.176C441.909 98.34 425.888 110.408 425.888 110.408C425.888 110.408 420.184 111.454 421.543 115.382C422.903 119.31 415.567 141.308 415.567 141.308L412.581 137.119C412.87 132.202 411.522 128.717 410.207 126.546C410.1 126.37 409.992 126.199 409.885 126.04L410.406 125.858C410.208 123.175 405.93 119.088 403.659 117.087C403.659 116.797 403.659 116.519 403.659 116.223C403.8 113.017 405.081 109.635 403.659 106.73C402.05 103.416 397.342 101.751 396.946 98.1126C396.708 95.9412 398.169 93.9801 398.815 91.8882C400.356 86.886 397.155 81.7814 394.096 77.4726C393.06 75.8571 391.799 74.3986 390.351 73.1411C388.972 72.1296 387.458 71.3182 385.853 70.7309C381.372 68.9119 376.789 67.9967 372.167 66.7518C367.731 65.5695 363.641 65.0067 359.137 66.4904C358.068 66.7795 357.092 67.3416 356.304 68.1218C355.234 69.3269 355.092 71.0436 354.39 72.4817C353.257 74.7953 350.815 76.1766 348.657 77.6602C346.498 79.1438 344.334 81.1788 344.323 83.7368C344.323 87.3691 348.458 89.6543 349.841 93.0365C351.132 96.1856 349.841 99.6929 349.121 103.013C348.82 104.086 348.791 105.217 349.036 106.304C349.321 107.114 349.751 107.865 350.305 108.521C351.161 109.658 352.078 110.715 352.99 111.795L352.571 111.96C344.969 111.175 340.08 120.862 340.08 120.862C340.431 120.935 340.765 121.021 341.094 121.117L340.771 121.538C338.474 124.532 336.596 127.827 335.191 131.332L328.959 139.711C328.959 139.711 327.599 118.758 330.863 114.046C334.126 109.334 327.877 106.452 327.877 106.452C327.877 106.452 314.281 91.2629 312.394 92.5704C310.508 93.8778 317.011 110.38 322.716 113C322.716 113 323.283 118.235 322.15 121.64C321.464 123.795 317.805 146.521 317.805 146.521C317.805 146.521 314.547 165.638 329.486 156.184C339.19 150.057 345.461 139.506 348.657 132.878C348.879 132.412 349.089 131.967 349.285 131.543C349.433 132.246 349.533 132.958 349.586 133.674L350.152 155.576C350.296 160.993 349.117 166.364 346.719 171.22L340.063 184.766L340.805 184.993L340.357 185.641C335.972 192.115 328.517 206.673 343.864 214.091L364.258 216.712L363.17 221.947C363.17 221.947 354.752 237.92 352.305 248.92C350.785 255.655 348.411 262.168 345.241 268.298L345.869 268.633C345.739 268.781 345.603 268.934 345.473 269.093C344.236 270.489 343.419 272.208 343.116 274.05L340.352 277.984C340.352 277.984 339.264 294.219 341.439 298.152C342.629 300.301 346.577 301.665 349.937 302.461C354.922 303.649 358.944 298.482 356.299 294.224L356.265 294.167H356.214C355.647 291.524 353.914 283.322 354.48 280.206C354.639 279.32 354.786 278.439 354.86 277.54C354.996 276.36 355.354 275.217 355.914 274.17C356.004 273.993 356.1 273.823 356.197 273.652L356.491 273.777C357.403 274.17 358.304 274.539 359.16 274.863C357.834 276.074 356.894 278.581 358.027 283.736C358.027 283.736 358.134 296.634 359.114 298.664C360.094 300.693 371.062 303.376 372.965 301.284C374.869 299.192 371.742 291.985 371.742 291.985L371.645 292.053C371.017 287.875 370.24 280.394 372.15 277.45C372.92 276.262 373.668 275.034 374.336 273.885L374.75 273.175C378.296 274.948 382.046 276.284 384.097 275.358C384.097 275.358 393.059 254.405 392.516 251.79C391.972 249.175 406.367 219.577 406.367 219.577C406.367 219.577 418.586 205.934 403.653 196.532C398.911 193.537 395.456 191.524 392.946 190.166L390.844 179.138C389.764 173.357 389.957 167.408 391.411 161.71L393.677 153.035L393.864 152.296C393.864 152.296 399.568 140.513 399.297 135.01C399.276 134.583 399.323 134.155 399.438 133.742C399.501 134.004 399.569 134.277 399.642 134.561C401.141 140.28 403.116 145.863 405.545 151.25C409.879 161.062 416.309 160.283 419.832 158.89C420.587 158.597 421.257 158.121 421.782 157.504C422.307 156.886 422.671 156.148 422.841 155.354C424.11 149.249 427.594 132.145 427.815 127.421C428.012 123.728 428.466 120.052 429.174 116.422C438.114 111.175 445.716 102.012 443.813 100.176Z" fill="url(#paint1_linear)"/>
<path d="M377.31 267.991C377.31 267.991 376.115 270.395 374.478 273.283C373.838 274.42 373.124 275.642 372.393 276.819C369.804 280.974 372.393 294.213 372.393 294.213L366.728 294.992L361.063 292.149L360.026 282.543V275.517L366.485 268.269L369.317 265.132L377.31 267.991Z" fill="#F8BDC5"/>
<g opacity="0.1">
<path opacity="0.1" d="M377.31 267.991C377.31 267.991 376.115 270.395 374.478 273.283C371.977 271.942 369.559 270.45 367.238 268.815L366.739 268.463L366.473 268.269L369.306 265.132L377.31 267.991Z" fill="black"/>
</g>
<path d="M405.007 219.435C405.007 219.435 391.292 248.772 391.813 251.37C392.334 253.967 383.791 274.738 383.791 274.738C381.843 275.659 378.262 274.335 374.886 272.578C372.34 271.216 369.88 269.698 367.521 268.031L367.023 267.678L366.723 267.462L389.236 204.888L369.317 190.228L367.844 189.143L358.939 182.549L386.131 187.483C386.131 187.483 387.077 187.363 392.079 190.171C394.481 191.519 397.818 193.537 402.429 196.572C416.643 205.934 405.007 219.435 405.007 219.435Z" fill="#5E52AD"/>
<g opacity="0.03">
<path opacity="0.03" d="M405.007 219.435C405.007 219.435 391.292 248.772 391.813 251.37C392.334 253.967 383.791 274.738 383.791 274.738C381.843 275.659 378.262 274.335 374.886 272.578C372.34 271.216 369.88 269.698 367.521 268.031L367.023 267.678L366.723 267.462L389.236 204.888L369.317 190.228L367.844 189.143L358.939 182.549L386.131 187.483C386.131 187.483 387.077 187.363 392.079 190.171C394.481 191.519 397.818 193.537 402.429 196.572C416.643 205.934 405.007 219.435 405.007 219.435Z" fill="black"/>
</g>
<path d="M363.34 273.181C363.34 273.181 356.61 272.14 358.944 283.049C358.944 283.049 359.046 295.839 359.981 297.828C360.916 299.818 371.368 302.501 373.175 300.426C374.982 298.351 372.008 291.211 372.008 291.211C372.008 291.211 364.377 296.794 362.304 290.819C360.23 284.845 363.34 273.181 363.34 273.181Z" fill="#5D3E53"/>
<path d="M358.678 271.106C357.944 271.807 357.346 272.64 356.916 273.561C356.382 274.605 356.042 275.738 355.913 276.904C355.846 277.791 355.704 278.672 355.557 279.547C354.911 283.248 357.386 294.213 357.386 294.213L347.552 295.77L343.932 291.877L343.156 283.31C344.122 280.373 344.645 277.308 344.708 274.215C344.708 271.981 345.841 269.986 346.974 268.531C347.742 267.56 348.623 266.684 349.597 265.922C349.597 265.922 360.751 269.287 358.678 271.106Z" fill="#F8BDC5"/>
<g opacity="0.1">
<path opacity="0.1" d="M358.678 271.106C357.944 271.807 357.346 272.64 356.916 273.561C352.888 271.737 348.657 269.435 347.116 268.582L346.997 268.519C347.765 267.548 348.645 266.673 349.62 265.91C349.62 265.91 360.752 269.287 358.678 271.106Z" fill="black"/>
</g>
<path d="M390.51 211.647C390.51 211.647 384.046 223.851 379.899 233.975C377.18 240.626 371.56 256.463 368.003 266.547L367.482 268.036C365.918 272.498 364.876 275.517 364.876 275.517C364.186 275.521 363.5 275.42 362.842 275.216C362.23 275.051 361.545 274.829 360.814 274.556L359.992 274.244C359.177 273.925 358.293 273.556 357.449 273.169C353.336 271.327 348.951 268.929 347.359 268.053L346.759 267.718C349.795 261.614 352.062 255.154 353.506 248.488C355.834 237.585 363.856 221.771 363.856 221.771L364.893 216.575L345.484 213.978C330.863 206.645 337.967 192.189 342.142 185.772C342.854 184.658 343.623 183.582 344.447 182.549L359.975 185.959C359.975 185.959 362.423 186.744 367.861 189.16L370.359 190.296C373.407 191.701 377.158 193.508 381.69 195.827C396.974 203.581 390.51 211.647 390.51 211.647Z" fill="#5E52AD"/>
<path d="M357.29 293.434C357.844 294.37 358.109 295.45 358.052 296.537C357.996 297.624 357.619 298.67 356.971 299.543C356.323 300.416 355.432 301.077 354.41 301.442C353.388 301.808 352.281 301.862 351.229 301.597C348.05 300.807 344.283 299.454 343.15 297.322C341.082 293.428 342.113 277.33 342.113 277.33L344.833 273.306C344.833 273.306 343.411 291.092 346.776 292.633C350.141 294.173 357.256 293.354 357.256 293.354L357.29 293.434Z" fill="#5D3E53"/>
<path d="M360.043 67.6443C359.01 67.9329 358.071 68.492 357.324 69.2643C356.304 70.4581 356.191 72.1634 355.5 73.5902C354.424 75.8639 352.101 77.2566 350.039 78.7061C347.977 80.1556 345.92 82.1963 345.909 84.7316C345.909 88.3355 349.875 90.5979 351.166 93.946C352.395 97.0724 351.166 100.546 350.481 103.837C350.195 104.902 350.168 106.021 350.401 107.1C350.672 107.9 351.082 108.645 351.614 109.3C354.112 112.71 357.216 115.734 358.888 119.617C360.157 122.567 360.508 125.824 360.842 129.024C361.324 133.629 361.805 138.318 360.933 142.866C360.848 143.138 360.848 143.429 360.933 143.701C361.081 143.962 361.316 144.163 361.596 144.27C363.244 145.074 365.037 145.534 366.868 145.625C368.699 145.715 370.528 145.434 372.248 144.797C373.967 144.159 375.54 143.18 376.872 141.917C378.205 140.655 379.269 139.135 380.001 137.449C381.134 134.874 381.571 131.764 383.814 130.093C384.076 129.876 384.391 129.732 384.726 129.678C385.255 129.693 385.768 129.865 386.199 130.173C389.111 131.753 392.64 131.798 395.886 131.15C397.846 130.758 399.852 130.059 401.149 128.524C403.704 125.477 402.282 120.924 402.452 116.951C402.588 113.773 403.806 110.419 402.452 107.543C400.922 104.257 396.43 102.609 396.056 99.0165C395.83 96.8678 397.223 94.918 397.841 92.8489C399.308 87.8864 396.26 82.8273 393.348 78.5583C392.369 76.9659 391.169 75.5209 389.785 74.2666C388.479 73.2687 387.036 72.4646 385.502 71.8792C381.236 70.0772 376.886 69.1677 372.472 67.9399C368.246 66.7291 364.354 66.1663 360.043 67.6443Z" fill="#85555C"/>
<path d="M381.712 141.803H366.7V117.394C367.146 115.05 367.407 112.674 367.482 110.289C367.482 109.487 367.482 108.669 367.482 107.844C367.34 104.934 366.739 102.029 365.165 100.256C361.023 95.5831 378.619 96.3618 378.619 96.3618C379.159 98.5075 379.86 100.609 380.715 102.649C381.99 105.831 383.686 108.827 385.757 111.556C387.579 113.984 389.914 115.978 392.595 117.394C402.928 122.59 381.712 141.803 381.712 141.803Z" fill="#F8BDC5"/>
<g opacity="0.1">
<path opacity="0.1" d="M380.698 102.649C379.174 104.643 377.135 106.181 374.803 107.097C372.471 108.013 369.933 108.271 367.465 107.844C367.323 104.934 366.723 102.029 365.148 100.256C361.006 95.5831 378.602 96.3618 378.602 96.3618C379.142 98.5075 379.843 100.609 380.698 102.649Z" fill="black"/>
</g>
<path d="M369.804 107.276C377.379 107.276 383.519 101.114 383.519 93.514C383.519 85.9135 377.379 79.752 369.804 79.752C362.23 79.752 356.089 85.9135 356.089 93.514C356.089 101.114 362.23 107.276 369.804 107.276Z" fill="#F8BDC5"/>
<path d="M426.733 117.138C426.059 120.739 425.628 124.382 425.441 128.041C425.231 132.719 421.912 149.681 420.699 155.735C420.546 156.512 420.205 157.238 419.705 157.85C419.204 158.462 418.561 158.94 417.833 159.243C414.468 160.624 408.349 161.397 404.237 151.671C401.918 146.319 400.036 140.787 398.611 135.129C398.107 133.228 397.728 131.295 397.478 129.343L406.542 124.409C407.395 125.21 408.118 126.14 408.684 127.166C409.936 129.32 411.222 132.776 410.95 137.648L413.782 141.803C413.782 141.803 420.767 119.992 419.447 116.098C418.127 112.204 423.588 111.164 423.588 111.164C423.588 111.164 438.856 99.2268 440.669 101.04C442.481 102.853 435.27 111.943 426.733 117.138Z" fill="#F8BDC5"/>
<path d="M352.469 127.524C351.762 129.555 350.949 131.547 350.033 133.492C346.985 140.069 341.014 150.545 331.769 156.605C317.538 165.95 320.643 146.998 320.643 146.998C320.643 146.998 324.127 124.465 324.784 122.334C325.821 118.957 325.3 113.767 325.3 113.767C319.867 111.17 313.658 94.8157 315.465 93.514C317.272 92.2122 330.194 107.276 330.194 107.276C330.194 107.276 336.148 110.118 333.027 114.808C329.905 119.497 331.214 140.251 331.214 140.251L337.202 131.958C338.534 128.497 340.323 125.231 342.521 122.249C343.654 120.697 344.447 119.759 344.447 119.759L352.469 127.524Z" fill="#F8BDC5"/>
<g opacity="0.1">
<path opacity="0.1" d="M408.689 127.166C406.786 127.87 399.416 130.855 398.6 135.124C398.096 133.222 397.717 131.289 397.467 129.337L406.531 124.403C407.391 125.204 408.119 126.137 408.689 127.166Z" fill="black"/>
</g>
<g opacity="0.1">
<path opacity="0.1" d="M352.469 127.524C351.762 129.555 350.949 131.547 350.033 133.492C349.682 130.923 348.237 124.352 342.521 122.232C343.654 120.68 344.447 119.742 344.447 119.742L352.469 127.524Z" fill="black"/>
</g>
<g opacity="0.1">
<path opacity="0.1" d="M381.712 141.803H366.7V117.394C367.146 115.05 367.407 112.674 367.482 110.289C370.569 113.279 369.804 117.911 369.804 117.911L377.826 136.101L381.712 120.02L380.421 117.945L385.746 111.59C387.568 114.018 389.903 116.012 392.583 117.428C402.928 122.59 381.712 141.803 381.712 141.803Z" fill="black"/>
</g>
<g opacity="0.1">
<path opacity="0.1" d="M392.317 191.644C392.317 191.644 380.557 190.706 370.354 190.262L369.328 190.217C367.878 190.16 366.496 190.115 365.142 190.08C355.239 189.842 344.04 186.369 342.136 185.76C342.85 184.65 343.622 183.578 344.447 182.549L359.975 185.959C359.975 185.959 362.423 186.744 367.861 189.16L358.939 182.549L386.131 187.483C386.131 187.483 387.077 187.363 392.079 190.171L392.317 191.644Z" fill="black"/>
</g>
<path d="M381.712 121.032L380.421 118.957L386.165 112.062C386.165 112.062 398.011 117.889 401.115 116.61C401.115 116.61 408.621 122.862 408.876 126.478C408.876 126.478 398.011 130.11 398.266 135.573C398.521 141.035 393.11 152.706 393.11 152.706L390.844 162.039C389.45 167.696 389.257 173.584 390.278 179.32L392.346 190.876C392.346 190.876 376.042 189.58 365.153 189.319C354.265 189.057 341.864 184.908 341.864 184.908L348.215 171.498C350.505 166.659 351.627 161.346 351.489 155.991L350.923 134.282C350.923 134.282 350.407 123.38 341.859 121.561C341.859 121.561 346.515 111.954 353.755 112.733C353.755 112.733 364.304 108.316 367.436 111.3C370.569 114.285 369.799 118.963 369.799 118.963L377.82 137.153L381.712 121.032Z" fill="#7C7CFF"/>
<g opacity="0.1">
<path opacity="0.1" d="M359.907 90.6774C361.986 90.6774 363.618 88.4662 365.697 88.5799C366.773 88.6367 367.697 89.3245 368.586 89.9441C371.947 92.2794 375.687 94.0105 379.639 95.0601C381.174 95.4694 382.8 95.7763 384.341 95.4012C385.882 95.026 387.326 93.8095 387.502 92.2236C387.545 91.5246 387.453 90.8239 387.23 90.1602C385.486 84.0621 381.539 78.8353 376.16 75.5001C374.008 74.1756 371.379 73.1638 368.994 73.9937C366.841 74.7384 365.453 76.762 363.896 78.4276C362.721 79.6747 361.388 80.7603 359.93 81.6563C358.797 82.3441 357.097 82.7932 356.446 84.0551C355.217 86.4085 357.148 90.6547 359.907 90.6774Z" fill="black"/>
</g>
<path d="M359.907 90.1602C361.986 90.1602 363.618 87.9489 365.697 88.0626C366.773 88.1195 367.697 88.8073 368.586 89.4269C371.947 91.7621 375.687 93.4932 379.639 94.5428C381.174 94.9521 382.8 95.2591 384.341 94.8839C385.882 94.5087 387.326 93.2923 387.502 91.7063C387.545 91.0073 387.453 90.3066 387.23 89.6429C385.486 83.5449 381.539 78.3181 376.16 74.9828C374.008 73.6584 371.379 72.6465 368.994 73.4765C366.841 74.2211 365.453 76.2448 363.896 77.9103C362.721 79.1574 361.388 80.2431 359.93 81.139C358.797 81.8268 357.097 82.2759 356.446 83.5378C355.217 85.9139 357.148 90.1317 359.907 90.1602Z" fill="#85555C"/>
<path opacity="0.05" d="M353.636 149.46C353.636 149.46 366.315 154.132 374.597 150.5L378.738 150.761C378.738 150.761 385.621 155.605 392.901 153.439" fill="black"/>
<path opacity="0.05" d="M413.669 141.672C413.669 141.672 411.601 146.606 412.632 148.164L413.669 141.672Z" fill="black"/>
<path opacity="0.05" d="M331.123 140.115C331.123 140.115 332.162 145.049 331.123 146.606V140.115Z" fill="black"/>
<path d="M545.727 252.546C545.727 252.546 522.025 276.33 535.406 311.618C548.787 346.907 512.473 405.593 512.473 405.593C512.473 405.593 512.864 405.536 513.606 405.411C562.286 396.788 586.471 340.927 559.403 299.425C549.313 283.992 541.054 265.893 545.727 252.546Z" fill="#6C63FF"/>
<path opacity="0.1" d="M545.727 252.944C545.727 252.944 522.025 276.728 535.406 312.016C548.787 347.305 512.473 405.985 512.473 405.985C512.473 405.985 512.864 405.928 513.606 405.803C562.286 397.18 586.471 341.319 559.403 299.818C549.313 284.39 541.054 266.291 545.727 252.944Z" fill="black"/>
<path d="M545.727 252.546C545.727 252.546 532.346 281.696 545.727 305.479C559.108 329.263 547.993 396.003 512.468 405.593" stroke="#535461" stroke-miterlimit="10"/>
<path d="M587.943 348.738C587.943 348.738 560.898 344.417 558.434 368.735C555.97 393.053 506.412 396.424 506.412 396.424L507.341 397.043C548.243 423.987 587.348 414.205 581.451 378.427C579.276 365.131 579.457 351.773 587.943 348.738Z" fill="#6C63FF"/>
<path d="M587.943 348.738C587.943 348.738 566.949 353.359 568.682 372.515C570.416 391.672 537.524 414.631 506.434 396.43" stroke="#535461" stroke-miterlimit="10"/>
<path d="M564.15 397.311C564.15 397.311 542.85 393.036 537.167 387.335C531.485 381.633 505.925 371.663 503.086 378.808C500.248 385.953 464.745 410.157 488.884 414.432C513.023 418.707 545.688 420.116 552.786 417.274C559.884 414.432 564.15 397.311 564.15 397.311Z" fill="#A8A8A8"/>
<path opacity="0.2" d="M488.884 411.766C513.028 416.041 545.688 417.45 552.786 414.608C558.196 412.437 561.952 402.012 563.436 397.157L564.144 397.305C564.144 397.305 559.884 414.404 552.786 417.252C545.688 420.099 513.023 418.678 488.884 414.409C481.916 413.176 479.922 410.277 480.675 406.61C481.264 409.003 483.695 410.845 488.884 411.766Z" fill="black"/>
</g>
<defs>
<linearGradient id="paint0_linear" x1="295.683" y1="424.289" x2="295.683" y2="12.7387" gradientUnits="userSpaceOnUse">
<stop stop-color="#808080" stop-opacity="0.25"/>
<stop offset="0.54" stop-color="#808080" stop-opacity="0.12"/>
<stop offset="1" stop-color="#808080" stop-opacity="0.1"/>
</linearGradient>
<linearGradient id="paint1_linear" x1="99140.2" y1="141405" x2="99140.2" y2="42556.6" gradientUnits="userSpaceOnUse">
<stop stop-color="#808080" stop-opacity="0.25"/>
<stop offset="0.54" stop-color="#808080" stop-opacity="0.12"/>
<stop offset="1" stop-color="#808080" stop-opacity="0.1"/>
</linearGradient>
<clipPath id="clip0">
<rect width="588" height="439" fill="white"/>
</clipPath>
</defs>
</svg>
