<svg width="222" height="168" viewBox="0 0 222 168" fill="none" xmlns="http://www.w3.org/2000/svg">
<g clip-path="url(#clip0)">
<path d="M61.4821 85.3741L-0.00805664 102.849L11.2574 138.872L72.7475 121.398L61.4821 85.3741Z" fill="url(#paint0_linear)"/>
<path d="M60.4314 86.6458L1.02551 103.528L11.5393 137.148L70.9452 120.266L60.4314 86.6458Z" fill="white"/>
<g opacity="0.6">
<path opacity="0.6" d="M6.08361 110.677L13.641 108.53L11.9737 103.198L4.4163 105.346L6.08361 110.677Z" fill="#F55F44"/>
<path opacity="0.6" d="M15.5264 119.289L44.5488 111.041L44.0084 109.313L14.9859 117.561L15.5264 119.289Z" fill="#F55F44"/>
<path opacity="0.6" d="M24.5587 120.799L45.7208 114.785L45.3603 113.632L24.1982 119.646L24.5587 120.799Z" fill="#F55F44"/>
</g>
<path d="M157.303 0.000976742L149.765 36.8983L212.746 48.5903L220.284 11.693L157.303 0.000976742Z" fill="url(#paint1_linear)"/>
<path d="M157.887 1.06409L150.852 35.4993L211.699 46.7951L218.733 12.3599L157.887 1.06409Z" fill="white"/>
<g opacity="0.6">
<path opacity="0.6" d="M158.867 9.63392L166.608 11.0709L167.723 5.61005L159.983 4.17305L158.867 9.63392Z" fill="#F55F44"/>
<path opacity="0.6" d="M163.045 21.4406L192.772 26.9591L193.133 25.1889L163.407 19.6704L163.045 21.4406Z" fill="#F55F44"/>
<path opacity="0.6" d="M170.314 26.7739L191.989 30.7978L192.23 29.6169L170.555 25.593L170.314 26.7739Z" fill="#F55F44"/>
</g>
<path d="M196.469 72.8529L160.293 87.8119L185.827 143.926L222.003 128.967L196.469 72.8529Z" fill="url(#paint2_linear)"/>
<path d="M195.879 73.9133L162.117 87.8742L186.785 142.087L220.547 128.126L195.879 73.9133Z" fill="white"/>
<g opacity="0.6">
<path opacity="0.6" d="M189.015 79.5437L192.153 86.4404L197.507 84.2264L194.369 77.3297L189.015 79.5437Z" fill="#47E6B1"/>
<path opacity="0.6" d="M181.169 89.5071L193.22 115.992L194.956 115.275L182.904 88.7895L181.169 89.5071Z" fill="#47E6B1"/>
<path opacity="0.6" d="M180.671 98.2347L189.459 117.547L190.617 117.068L181.829 97.7559L180.671 98.2347Z" fill="#47E6B1"/>
</g>
<path d="M77.594 0.26366L17.1212 20.7116L30.3036 56.1394L90.7763 35.6914L77.594 0.26366Z" fill="url(#paint3_linear)"/>
<path d="M76.6146 1.58919L18.1915 21.3441L30.4943 54.4078L88.9173 34.6529L76.6146 1.58919Z" fill="white"/>
<g opacity="0.6">
<path opacity="0.6" d="M23.6075 28.2511L31.0398 25.7379L29.0888 20.4945L21.6564 23.0077L23.6075 28.2511Z" fill="#6C63FF"/>
<path opacity="0.6" d="M33.4993 36.3948L62.0416 26.7436L61.4092 25.0439L32.8669 34.6951L33.4993 36.3948Z" fill="#6C63FF"/>
<path opacity="0.6" d="M42.6001 37.4632L63.4121 30.426L62.9902 29.2921L42.1782 36.3293L42.6001 37.4632Z" fill="#6C63FF"/>
</g>
<path d="M111.078 2.23853L36.3732 69.2796V168H185.78V69.2796L111.078 2.23853Z" fill="url(#paint4_linear)"/>
<path d="M185.023 165.834H37.1305V69.1191L111.078 3.44162L185.023 69.1191V165.834Z" fill="white"/>
<path d="M162.56 16.914H59.5928V132.393H162.56V16.914Z" fill="url(#paint5_linear)"/>
<path d="M161.26 17.8765H60.8932V132.393H161.26V17.8765Z" fill="white"/>
<path d="M37.1305 69.1191L111.078 117.477L37.1305 165.834V69.1191Z" fill="#F5F5F5"/>
<path d="M185.022 69.1191L111.078 117.477L185.022 165.834V69.1191Z" fill="#F5F5F5"/>
<path d="M37.1305 165.832L108.174 113.141C109 112.52 110.022 112.183 111.074 112.183C112.126 112.183 113.148 112.52 113.974 113.141L185.023 165.832H37.1305Z" fill="url(#paint6_linear)"/>
<path d="M37.1305 165.832L108.174 115.442C109.012 114.848 110.029 114.527 111.074 114.527C112.119 114.527 113.136 114.848 113.974 115.442L185.023 165.832H37.1305Z" fill="white"/>
<path d="M97.0701 40.0088H76.1222V43.3775H97.0701V40.0088Z" fill="#47E6B1"/>
<path d="M146.031 48.9118H76.1222V52.2805H146.031V48.9118Z" fill="#F5F5F5"/>
<path d="M146.031 54.6843H76.1222V58.053H146.031V54.6843Z" fill="#F5F5F5"/>
<path d="M146.031 60.4592H76.1222V63.8279H146.031V60.4592Z" fill="#F5F5F5"/>
<path d="M146.031 66.2317H76.1222V69.6004H146.031V66.2317Z" fill="#F5F5F5"/>
<path d="M107.921 72.0066H76.1222V75.3753H107.921V72.0066Z" fill="#F5F5F5"/>
<path d="M146.031 72.0066H114.232V75.3753H146.031V72.0066Z" fill="#6C63FF"/>
</g>
<defs>
<linearGradient id="paint0_linear" x1="42.0025" y1="130.135" x2="31.6883" y2="93.8411" gradientUnits="userSpaceOnUse">
<stop stop-color="#808080" stop-opacity="0.25"/>
<stop offset="0.54" stop-color="#808080" stop-opacity="0.12"/>
<stop offset="1" stop-color="#808080" stop-opacity="0.1"/>
</linearGradient>
<linearGradient id="paint1_linear" x1="4787.93" y1="10707.4" x2="6517.5" y2="1390.72" gradientUnits="userSpaceOnUse">
<stop stop-color="#808080" stop-opacity="0.25"/>
<stop offset="0.54" stop-color="#808080" stop-opacity="0.12"/>
<stop offset="1" stop-color="#808080" stop-opacity="0.1"/>
</linearGradient>
<linearGradient id="paint2_linear" x1="-22921.7" y1="19470.4" x2="-13960.2" y2="15392.6" gradientUnits="userSpaceOnUse">
<stop stop-color="#808080" stop-opacity="0.25"/>
<stop offset="0.54" stop-color="#808080" stop-opacity="0.12"/>
<stop offset="1" stop-color="#808080" stop-opacity="0.1"/>
</linearGradient>
<linearGradient id="paint3_linear" x1="-639.197" y1="9281.93" x2="-2511.02" y2="3746.22" gradientUnits="userSpaceOnUse">
<stop stop-color="#808080" stop-opacity="0.25"/>
<stop offset="0.54" stop-color="#808080" stop-opacity="0.12"/>
<stop offset="1" stop-color="#808080" stop-opacity="0.1"/>
</linearGradient>
<linearGradient id="paint4_linear" x1="65126.8" y1="114578" x2="65126.8" y2="1528.9" gradientUnits="userSpaceOnUse">
<stop stop-color="#808080" stop-opacity="0.25"/>
<stop offset="0.54" stop-color="#808080" stop-opacity="0.12"/>
<stop offset="1" stop-color="#808080" stop-opacity="0.1"/>
</linearGradient>
<linearGradient id="paint5_linear" x1="44918.4" y1="62919.4" x2="44918.4" y2="8053.09" gradientUnits="userSpaceOnUse">
<stop stop-color="#808080" stop-opacity="0.25"/>
<stop offset="0.54" stop-color="#808080" stop-opacity="0.12"/>
<stop offset="1" stop-color="#808080" stop-opacity="0.1"/>
</linearGradient>
<linearGradient id="paint6_linear" x1="88816.7" y1="42317.2" x2="88816.7" y2="30475.3" gradientUnits="userSpaceOnUse">
<stop stop-color="#808080" stop-opacity="0.25"/>
<stop offset="0.54" stop-color="#808080" stop-opacity="0.12"/>
<stop offset="1" stop-color="#808080" stop-opacity="0.1"/>
</linearGradient>
<clipPath id="clip0">
<rect width="222" height="168" fill="white"/>
</clipPath>
</defs>
</svg>
