<svg width="1440" height="798" viewBox="0 0 1440 798" fill="none" xmlns="http://www.w3.org/2000/svg">
<path d="M653.1 464.993L704.187 719.728L458.036 636.603L653.1 464.993Z" fill="#ECEBFF"/>
<path d="M641.102 500.521L679.417 691.573L494.804 629.229L641.102 500.521Z" fill="#F1F1FF"/>
<path d="M1196.55 111.082L1369.67 116.218L1278.66 263.584L1196.55 111.082Z" fill="#ECEBFF"/>
<path d="M1217.82 124.218L1347.66 128.07L1279.4 238.595L1217.82 124.218Z" fill="#F1F1FF"/>
<rect x="1067" y="310.938" width="90" height="90" transform="rotate(-12.1469 1067 310.938)" fill="#ECEBFF"/>
<rect x="1078.88" y="318.61" width="70" height="70" transform="rotate(-12.1469 1078.88 318.61)" fill="#F1F1FF"/>
<path d="M133.77 125.837L242.656 72.511L234.395 193.473L133.77 125.837Z" fill="#ECEBFF"/>
<path d="M151.229 127.03L232.894 87.035L226.698 177.756L151.229 127.03Z" fill="#F1F1FF"/>
<path d="M1172 656C1172 711.228 1127.23 756 1072 756C1016.77 756 972 711.228 972 656C972 600.772 1016.77 556 1072 556C1127.23 556 1172 600.772 1172 656Z" fill="#ECEBFF"/>
<circle cx="1072" cy="656" r="75" fill="#F1F1FF"/>
<path d="M403 344C403 377.137 376.137 404 343 404C309.863 404 283 377.137 283 344C283 310.863 309.863 284 343 284C376.137 284 403 310.863 403 344Z" fill="#ECEBFF"/>
<circle cx="343" cy="344" r="45" fill="#F1F1FF"/>
<path d="M483 15C483 48.1371 456.137 75 423 75C389.863 75 363 48.1371 363 15C363 -18.1371 389.863 -45 423 -45C456.137 -45 483 -18.1371 483 15Z" fill="#ECEBFF"/>
<circle cx="423" cy="15" r="45" fill="#F1F1FF"/>
<path d="M910 375C910 399.853 889.853 420 865 420C840.147 420 820 399.853 820 375C820 350.147 840.147 330 865 330C889.853 330 910 350.147 910 375Z" fill="#ECEBFF"/>
<circle cx="865" cy="375" r="33.75" fill="#F1F1FF"/>
<rect x="572" y="93.8753" width="180" height="180" transform="rotate(-12.1469 572 93.8753)" fill="#ECEBFF"/>
<rect x="595.761" y="109.219" width="140" height="140" transform="rotate(-12.1469 595.761 109.219)" fill="#F1F1FF"/>
<rect x="200" y="615.459" width="140" height="140" transform="rotate(-12.1469 200 615.459)" fill="#ECEBFF"/>
<rect x="218.48" y="627.393" width="108.889" height="108.889" transform="rotate(-12.1469 218.48 627.393)" fill="#F1F1FF"/>
<rect x="-52" y="330.667" width="160" height="160" transform="rotate(-12.1469 -52 330.667)" fill="#ECEBFF"/>
<rect x="-30.8795" y="344.306" width="124.444" height="124.444" transform="rotate(-12.1469 -30.8795 344.306)" fill="#F1F1FF"/>
<path d="M1377.91 504.174L1466 611.127L1329.33 633.945L1377.91 504.174Z" fill="#ECEBFF"/>
<path d="M1381.2 523.901L1447.27 604.115L1344.77 621.229L1381.2 523.901Z" fill="#F1F1FF"/>
</svg>
