<svg width="225" height="179" viewBox="0 0 225 179" fill="none" xmlns="http://www.w3.org/2000/svg">
<g clip-path="url(#clip0)">
<path d="M111.251 46.4572C121.592 44.6349 133.608 44.9515 146.566 46.4572C143.937 31.484 143.817 16.8184 146.566 2.50806H111.251C108.643 17.0407 108.643 31.9246 111.251 46.4572Z" fill="white"/>
<path d="M121.794 4.04797L134.078 4.04797V-8.58307e-06L121.794 -8.58307e-06V4.04797Z" fill="#3F3D56"/>
<path opacity="0.1" d="M83.7618 133.233C94.1022 131.41 106.119 131.727 119.076 133.233C116.448 118.259 116.327 103.594 119.076 89.2834H83.7618C81.1535 103.816 81.1535 118.7 83.7618 133.233Z" fill="black"/>
<path d="M82.1741 131.182C92.5145 129.36 104.531 129.677 117.489 131.182C114.86 116.209 114.74 101.544 117.489 87.2332H82.1741C79.5657 101.766 79.5657 116.65 82.1741 131.182Z" fill="white"/>
<path d="M92.7118 88.7731H104.996V84.7251H92.7118V88.7731Z" fill="#3F3D56"/>
<path d="M51.8266 59.4418C51.8266 59.4418 65.5238 20.5315 96.0391 20.1875" stroke="#3F3D56" stroke-width="2" stroke-miterlimit="10"/>
<path d="M98.7768 20.2604C97.4771 20.716 95.8622 21.4928 94.8506 22.3379L95.6808 20.1898L94.9504 18.0052C95.9212 18.8959 97.4998 19.7547 98.7768 20.2604Z" fill="#3F3D56"/>
<path d="M52.9607 74.2487C52.9607 74.2487 51.7223 105.557 69.5316 109.819" stroke="#3F3D56" stroke-width="2" stroke-miterlimit="10"/>
<path d="M72.2398 110.241C70.8902 110.505 69.1823 111.054 68.0641 111.749L69.1823 109.737L68.7605 107.473C69.5997 108.489 71.0445 109.557 72.2398 110.241Z" fill="#3F3D56"/>
<path d="M56.5897 63.9977C56.5897 63.9977 152.899 47.8741 169.427 67.8202" stroke="#3F3D56" stroke-width="2" stroke-miterlimit="10"/>
<path d="M170.903 70.1483C169.792 69.335 168.229 68.4489 166.963 68.0981L169.191 67.5537L170.552 65.7017C170.386 67.0138 170.59 68.8043 170.903 70.1483Z" fill="#3F3D56"/>
<g opacity="0.1">
<path opacity="0.1" d="M112.159 178.009C174.102 178.009 224.317 174.643 224.317 170.491C224.317 166.34 174.102 162.974 112.159 162.974C50.2152 162.974 0 166.34 0 170.491C0 174.643 50.2152 178.009 112.159 178.009Z" fill="#6C63FF"/>
</g>
<path opacity="0.1" d="M210.654 114.46C201.493 119.608 192.371 127.469 183.269 136.852C175.893 123.576 166.771 112.127 155.641 102.771L183.026 80.3788C194.184 89.9947 203.541 101.537 210.654 114.46Z" fill="black"/>
<path d="M211.108 112.637C201.947 117.786 192.824 125.647 183.722 135.03C176.347 121.754 167.224 110.305 156.094 100.949L183.48 78.5564C194.638 88.1723 203.994 99.7142 211.108 112.637Z" fill="white"/>
<path d="M173.736 83.299L164.209 91.0884L166.754 94.2276L176.28 86.4382L173.736 83.299Z" fill="#3F3D56"/>
<path d="M187.174 92.4562L170.288 106.263L172.15 108.56L189.035 94.7527L187.174 92.4562Z" fill="#6C63FF"/>
<path d="M212.897 167.596C212.765 167.386 212.599 167.2 212.405 167.045C211.414 166.106 210.954 164.723 210.709 163.373C210.464 162.022 210.393 160.639 210.001 159.313C209.787 158.635 209.52 157.974 209.203 157.338C208.976 156.853 208.69 155.896 208.275 155.557C208.193 155.486 208.095 155.438 207.989 155.416C207.794 154.997 207.514 154.624 207.168 154.32C206.519 153.73 205.728 153.261 205.295 152.497C205.176 152.232 205.029 151.98 204.857 151.746C204.564 151.422 204.102 151.29 203.832 150.948C203.48 150.507 203.56 149.876 203.605 149.311C203.65 148.746 203.605 148.074 203.12 147.78C202.829 147.6 202.455 147.616 202.153 147.459C201.7 147.231 201.521 146.654 201.53 146.142C201.539 145.629 201.697 145.13 201.738 144.62C201.865 142.989 200.795 141.367 201.208 139.786C201.364 139.187 201.722 138.666 201.988 138.11C202.08 137.924 202.155 137.73 202.215 137.531C202.922 137.813 203.666 137.993 204.424 138.064C203.174 135.251 203.492 131.977 202.909 128.952L202.983 128.847C203.573 128.069 203.907 127.126 203.941 126.148C203.941 125.009 203.417 123.968 203.181 122.868C202.979 121.929 202.988 120.952 202.727 120.029C202.546 119.457 202.306 118.906 202.01 118.385C201.728 117.859 201.431 117.341 201.119 116.831C200.829 115.865 200.538 114.899 200.246 113.933C199.838 112.567 199.418 111.2 198.624 110.029C198.334 109.598 198.245 108.731 197.799 108.469C197.435 108.281 197.024 108.209 196.619 108.264C195.989 107.908 195.435 107.396 195.356 106.694C195.348 106.541 195.363 106.387 195.401 106.238H195.478C196.476 106.145 196.982 105.261 197.501 104.489C198.341 103.234 198.021 101.539 197.501 100.113C197.372 99.6631 197.139 99.2503 196.821 98.9079C196.093 98.2245 194.941 98.3771 194.002 98.0468C193.698 97.9121 193.386 97.7942 193.069 97.6937C192.446 97.5457 191.793 97.7507 191.221 98.04C190.649 98.3293 190.116 98.7029 189.518 98.9329C188.919 99.163 188.179 99.3407 188.032 99.958C187.991 100.166 188.008 100.381 188.082 100.58C188.22 100.975 188.462 101.325 188.783 101.594C188.528 102.122 188.39 102.699 188.379 103.286C188.367 103.873 188.483 104.455 188.717 104.993C188.951 105.53 189.299 106.011 189.736 106.4C190.173 106.79 190.689 107.08 191.248 107.25C191.421 107.526 191.582 107.808 191.729 108.1C191.992 108.61 192.214 109.211 192.124 109.758C191.96 109.932 191.808 110.118 191.67 110.314C191.019 111.225 190.649 112.296 190.309 113.359C189.852 114.721 189.486 116.113 189.214 117.524C188.66 118.704 187.984 119.833 187.583 121.075C186.864 121.077 186.149 120.981 185.455 120.79L183.541 120.353C182.874 120.202 182.18 120.036 181.659 119.597C181.382 119.369 181.166 119.066 180.885 118.838C180.604 118.61 180.039 118.348 179.731 118.535C179.674 118.569 179.622 118.61 179.574 118.656C179.293 118.084 178.603 119.542 178.277 119.002C177.81 118.225 176.17 119.125 175.285 118.979C174.745 118.892 174.192 119.021 173.745 119.337C173.228 119.708 172.904 120.476 173.291 120.995C173.388 121.112 173.493 121.221 173.607 121.321C173.87 121.624 174.104 121.95 174.308 122.296C175.006 123.305 176.614 122.414 177.835 122.647C177.807 122.724 178.69 120.804 178.662 120.884C178.501 121.355 178.159 121.929 178.245 122.421L186.76 125.348C187.306 125.571 187.885 125.699 188.474 125.727C188.704 125.724 188.932 125.694 189.155 125.638V126.075V126.091C189.177 129.096 188.701 132.082 188.613 135.085C188.597 135.631 188.613 136.224 188.957 136.652C189.343 137.121 190.028 137.212 190.624 137.107C190.767 137.084 190.908 137.053 191.046 137.014C191.248 137.769 191.394 138.538 191.482 139.315L192.047 143.36C192.119 143.777 192.149 144.2 192.135 144.622C192.069 145.575 191.568 146.431 191.205 147.313C190.842 148.194 190.627 149.247 191.103 150.071C191.253 150.327 191.459 150.545 191.593 150.809C191.763 151.218 191.84 151.659 191.82 152.101C191.855 153.331 191.888 154.56 191.92 155.787C191.82 155.772 191.719 155.793 191.634 155.846C191.162 156.213 191.214 157.971 191.18 158.516C191.144 159.427 191.18 160.357 191.13 161.277C191.067 162.521 190.863 163.753 190.522 164.951C190.441 165.34 190.262 165.701 190.003 166.001C189.737 166.232 189.421 166.397 189.08 166.482C187.95 166.837 186.768 166.998 185.585 166.958C185.106 166.944 184.607 166.897 184.163 167.081C183.718 167.266 183.36 167.765 183.521 168.22C183.659 168.603 184.079 168.785 184.457 168.929C185.322 169.231 186.157 169.612 186.952 170.068C187.259 170.277 187.581 170.461 187.916 170.619C188.238 170.735 188.571 170.817 188.91 170.865L192.931 171.548C193.754 171.692 194.746 171.776 195.27 171.093C195.553 170.724 195.594 170.222 195.58 169.756C195.558 168.844 195.376 167.915 195.494 167.006C195.584 166.467 195.725 165.937 195.916 165.425L197.118 161.901C197.522 160.701 197.93 159.491 198.087 158.233C198.143 157.778 198.139 157.261 197.792 156.974C197.703 156.902 197.602 156.85 197.492 156.819C197.479 155.721 197.336 154.623 197.397 153.525C197.413 153.249 197.44 152.976 197.463 152.703C197.674 152.903 197.862 153.126 198.023 153.368C198.411 153.976 198.554 154.782 199.146 155.19C199.649 155.534 200.396 155.518 200.749 156.019C200.863 156.211 200.948 156.418 201.003 156.634C201.209 157.172 201.517 157.664 201.911 158.083C202.046 158.583 202.234 159.067 202.471 159.527L203.469 161.646C203.808 162.407 204.187 163.15 204.603 163.871C204.919 164.326 205.175 164.821 205.363 165.343C205.683 166.471 205.161 167.705 204.335 168.532C203.51 169.359 202.421 169.838 201.348 170.282C201.235 170.319 201.131 170.382 201.044 170.464C200.951 170.575 200.902 170.716 200.906 170.86C200.906 171.387 201.337 171.835 201.831 171.999C202.337 172.133 202.866 172.153 203.38 172.056C206.279 171.703 209.169 170.99 211.732 169.578C212.114 169.394 212.454 169.131 212.727 168.806C212.864 168.639 212.952 168.438 212.982 168.225C213.012 168.011 212.983 167.794 212.897 167.596Z" fill="url(#paint0_linear)"/>
<path d="M200.647 116.519C201.131 117.263 201.585 118.027 202.008 118.811C202.304 119.327 202.544 119.874 202.725 120.442C202.988 121.353 202.981 122.326 203.178 123.257C203.405 124.351 203.936 125.394 203.936 126.513C203.901 127.484 203.567 128.42 202.979 129.191C202.392 129.957 201.721 130.653 200.978 131.267C199.266 126.81 198.309 122.097 198.148 117.323C198.125 116.66 198.121 115.979 198.361 115.362C198.508 114.977 199.216 113.915 199.672 114.332C199.838 114.485 199.881 115.17 199.983 115.4C200.175 115.79 200.397 116.164 200.647 116.519Z" fill="#2F2E41"/>
<path opacity="0.1" d="M200.647 116.519C201.131 117.263 201.585 118.027 202.008 118.811C202.304 119.327 202.544 119.874 202.725 120.442C202.988 121.353 202.981 122.326 203.178 123.257C203.405 124.351 203.936 125.394 203.936 126.513C203.901 127.484 203.567 128.42 202.979 129.191C202.392 129.957 201.721 130.653 200.978 131.267C199.266 126.81 198.309 122.097 198.148 117.323C198.125 116.66 198.121 115.979 198.361 115.362C198.508 114.977 199.216 113.915 199.672 114.332C199.838 114.485 199.881 115.17 199.983 115.4C200.175 115.79 200.397 116.164 200.647 116.519Z" fill="black"/>
<path d="M176.299 119.007C175.412 118.861 174.428 118.931 173.738 119.51C173.322 119.865 173.059 120.368 173.003 120.913C172.944 121.546 173.31 122.294 173.94 122.344C174.092 122.345 174.244 122.336 174.394 122.314C174.792 122.312 175.19 122.344 175.582 122.412C176.355 122.485 177.133 122.371 177.853 122.079C178.572 121.787 179.212 121.327 179.717 120.736C180.259 120.064 179.545 119.758 178.905 119.622C178.03 119.435 177.174 119.152 176.299 119.007Z" fill="#FBBEBE"/>
<path d="M191.468 139.577L192.031 143.591C192.102 144.004 192.131 144.424 192.117 144.843C192.051 145.789 191.55 146.639 191.189 147.513C190.829 148.388 190.609 149.434 191.087 150.247C191.235 150.5 191.441 150.716 191.575 150.978C191.745 151.384 191.822 151.823 191.802 152.263L191.956 157.958C193.707 158.079 195.464 158.069 197.213 157.93C197.282 157.933 197.349 157.911 197.404 157.869C197.45 157.811 197.473 157.738 197.47 157.664C197.547 156.331 197.315 154.996 197.39 153.664C197.417 153.176 197.485 152.689 197.495 152.201C197.522 150.217 196.546 148.274 196.841 146.31C196.934 145.816 197.055 145.327 197.204 144.846C198.136 141.44 197.939 137.839 197.733 134.312C197.737 134.255 197.721 134.198 197.687 134.151C197.653 134.118 197.611 134.095 197.565 134.085C196.572 133.786 195.523 133.732 194.505 133.927C193.488 134.122 192.532 134.559 191.718 135.203C191.47 135.403 190.847 135.595 190.683 135.834C190.457 136.169 190.754 136.499 190.885 136.855C191.177 137.738 191.372 138.651 191.468 139.577Z" fill="#3F3D56"/>
<path opacity="0.1" d="M191.468 139.577L192.031 143.591C192.102 144.004 192.131 144.424 192.117 144.843C192.051 145.789 191.55 146.639 191.189 147.513C190.829 148.388 190.609 149.434 191.087 150.247C191.235 150.5 191.441 150.716 191.575 150.978C191.745 151.384 191.822 151.823 191.802 152.263L191.956 157.958C193.707 158.079 195.464 158.069 197.213 157.93C197.282 157.933 197.349 157.911 197.404 157.869C197.45 157.811 197.473 157.738 197.47 157.664C197.547 156.331 197.315 154.996 197.39 153.664C197.417 153.176 197.485 152.689 197.495 152.201C197.522 150.217 196.546 148.274 196.841 146.31C196.934 145.816 197.055 145.327 197.204 144.846C198.136 141.44 197.939 137.839 197.733 134.312C197.737 134.255 197.721 134.198 197.687 134.151C197.653 134.118 197.611 134.095 197.565 134.085C196.572 133.786 195.523 133.732 194.505 133.927C193.488 134.122 192.532 134.559 191.718 135.203C191.47 135.403 190.847 135.595 190.683 135.834C190.457 136.169 190.754 136.499 190.885 136.855C191.177 137.738 191.372 138.651 191.468 139.577Z" fill="black"/>
<path d="M201.976 138.372C201.711 138.925 201.355 139.442 201.196 140.037C200.783 141.606 201.852 143.226 201.725 144.834C201.684 145.34 201.527 145.837 201.516 146.345C201.505 146.853 201.691 147.415 202.14 147.65C202.441 147.807 202.82 147.791 203.104 147.969C203.582 148.26 203.637 148.93 203.589 149.488C203.541 150.046 203.462 150.675 203.816 151.115C204.086 151.454 204.548 151.584 204.839 151.905C205.012 152.137 205.158 152.386 205.277 152.65C205.71 153.409 206.501 153.876 207.15 154.459C207.799 155.042 208.348 155.933 208.057 156.757C207.844 157.366 207.245 157.737 206.669 158.024C205.618 158.545 204.509 158.938 203.364 159.195C203.242 159.233 203.112 159.24 202.986 159.215C202.858 159.168 202.744 159.09 202.655 158.987C201.985 158.331 201.294 157.641 200.985 156.753C200.93 156.538 200.844 156.333 200.731 156.142C200.377 155.646 199.631 155.662 199.128 155.32C198.538 154.917 198.395 154.115 198.009 153.511C197.624 152.908 197.059 152.55 196.649 152.017C195.955 151.133 195.784 149.953 195.288 148.944C195.05 148.53 194.834 148.104 194.639 147.668C194.469 147.133 194.365 146.579 194.328 146.019C194.008 143.36 193.194 140.679 193.707 138.046C193.82 137.465 193.995 136.907 194.067 136.31C194.192 135.276 193.995 134.221 194.147 133.189C194.15 133.06 194.183 132.934 194.242 132.819C194.301 132.705 194.386 132.605 194.489 132.529C194.612 132.473 194.745 132.445 194.879 132.447C196.224 132.376 197.572 132.406 198.912 132.538C199.593 132.606 200.355 132.745 200.763 133.301C201.11 133.779 201.092 134.422 201.203 135.003C201.341 135.716 201.702 136.107 202.081 136.668C202.46 137.228 202.264 137.793 201.976 138.372Z" fill="#3F3D56"/>
<path d="M196.76 156.889C197.118 156.889 197.515 156.867 197.792 157.097C198.136 157.379 198.141 157.901 198.087 158.345C197.928 159.593 197.522 160.794 197.116 161.99L195.909 165.544C195.719 166.052 195.577 166.577 195.487 167.113C195.369 168.024 195.551 168.935 195.573 169.847C195.573 170.302 195.544 170.808 195.26 171.172C194.748 171.835 193.748 171.758 192.924 171.628L188.907 170.945C188.569 170.899 188.235 170.816 187.914 170.699C187.578 170.545 187.255 170.363 186.95 170.154C186.155 169.698 185.32 169.317 184.455 169.015C184.079 168.872 183.657 168.692 183.521 168.311C183.36 167.856 183.718 167.357 184.163 167.172C184.607 166.988 185.104 167.036 185.585 167.052C186.767 167.09 187.948 166.929 189.078 166.575C189.417 166.491 189.733 166.328 189.998 166.099C190.258 165.803 190.436 165.444 190.518 165.058C190.86 163.871 191.064 162.648 191.126 161.414C191.173 160.502 191.142 159.591 191.178 158.68C191.201 158.138 191.148 156.402 191.62 156.031C191.981 155.753 193.464 156.518 193.952 156.632C194.873 156.835 195.817 156.921 196.76 156.889Z" fill="#2F2E41"/>
<path d="M209.985 159.416C210.377 160.723 210.439 162.101 210.693 163.443C210.947 164.785 211.396 166.156 212.387 167.088C212.58 167.241 212.747 167.426 212.879 167.635C212.963 167.83 212.991 168.044 212.961 168.254C212.931 168.465 212.844 168.663 212.709 168.826C212.435 169.149 212.095 169.41 211.713 169.591C209.153 170.997 206.27 171.703 203.364 172.054C202.851 172.152 202.323 172.134 201.818 171.999C201.323 171.831 200.885 171.384 200.894 170.86C200.89 170.717 200.938 170.578 201.031 170.468C201.118 170.386 201.223 170.324 201.337 170.286C202.407 169.847 203.494 169.375 204.322 168.55C205.149 167.726 205.669 166.5 205.349 165.393C205.162 164.874 204.907 164.383 204.589 163.933C204.175 163.216 203.796 162.479 203.455 161.723L202.457 159.621C202.165 159.006 201.87 158.372 201.82 157.694C203.074 157.751 204.326 157.55 205.499 157.101C206.047 156.878 206.557 156.571 207.012 156.19C207.397 155.867 207.749 155.263 208.268 155.687C208.685 156.024 208.949 156.971 209.193 157.454C209.51 158.086 209.775 158.742 209.985 159.416Z" fill="#2F2E41"/>
<path d="M195.36 107.209C195.46 108.081 196.304 108.66 197.109 109.004L192.012 110.646C192.341 110.013 192.076 109.241 191.749 108.596C191.484 108.088 191.181 107.601 190.842 107.138C190.792 107.065 190.735 106.976 190.772 106.897C190.804 106.843 190.855 106.803 190.915 106.785C191.963 106.316 193.042 105.831 194.188 105.66C194.519 105.61 195.145 105.478 195.392 105.815C195.639 106.152 195.313 106.806 195.36 107.209Z" fill="#FBBEBE"/>
<path opacity="0.1" d="M195.36 107.209C195.46 108.081 196.304 108.66 197.109 109.004L192.012 110.646C192.341 110.013 192.076 109.241 191.749 108.596C191.484 108.088 191.181 107.601 190.842 107.138C190.792 107.065 190.735 106.976 190.772 106.897C190.804 106.843 190.855 106.803 190.915 106.785C191.963 106.316 193.042 105.831 194.188 105.66C194.519 105.61 195.145 105.478 195.392 105.815C195.639 106.152 195.313 106.806 195.36 107.209Z" fill="black"/>
<path d="M192.398 107.917C194.605 107.917 196.394 106.12 196.394 103.903C196.394 101.687 194.605 99.8897 192.398 99.8897C190.191 99.8897 188.402 101.687 188.402 103.903C188.402 106.12 190.191 107.917 192.398 107.917Z" fill="#FBBEBE"/>
<path d="M188.944 136.934C189.332 137.39 190.014 137.49 190.611 137.39C192.006 137.162 193.147 136.13 194.512 135.757C196.186 135.301 197.957 135.889 199.538 136.604C201.119 137.319 202.691 138.187 204.419 138.324C202.856 134.825 203.75 130.613 202.255 127.084C201.89 126.221 201.38 125.389 201.298 124.456C201.196 123.296 201.772 122.178 201.861 121.025C201.942 119.998 201.634 118.975 201.339 117.997C200.975 116.795 200.61 115.591 200.246 114.387C199.838 113.041 199.418 111.674 198.626 110.514C198.334 110.088 198.245 109.227 197.801 108.967C196.83 108.405 195.358 109.116 194.306 109.154C193.253 109.193 192.294 109.945 191.679 110.792C191.028 111.703 190.658 112.76 190.318 113.817C189.776 115.391 189.372 117.009 189.109 118.653C189.075 118.9 189.046 119.146 189.023 119.394C188.796 121.733 189.127 124.086 189.146 126.435V126.451C189.168 129.433 188.692 132.397 188.604 135.376C188.594 135.932 188.594 136.517 188.944 136.934Z" fill="#2F2E41"/>
<path opacity="0.1" d="M189.143 126.437C189.926 126.239 190.633 125.731 191.241 125.178C191.767 124.707 192.234 124.176 192.634 123.594C193.137 122.799 193.54 121.945 193.834 121.05C194.674 118.678 195.208 116.207 195.421 113.699C195.48 113.015 195.499 112.284 195.093 111.742C194.865 111.448 194.545 111.24 194.185 111.152C193.824 111.064 193.445 111.101 193.108 111.257C192.573 111.521 192.226 112.052 191.904 112.558C191.266 113.567 190.624 114.585 190.214 115.706C190.032 116.202 189.899 116.715 189.722 117.214C189.541 117.706 189.334 118.187 189.1 118.656C189.066 118.902 189.037 119.148 189.014 119.396C188.803 121.736 189.125 124.086 189.143 126.437Z" fill="black"/>
<path d="M195.081 111.309C195.487 111.851 195.469 112.592 195.412 113.266C195.198 115.775 194.665 118.246 193.825 120.619C193.532 121.514 193.129 122.368 192.625 123.162C192.226 123.744 191.758 124.275 191.232 124.745C190.461 125.453 189.522 126.082 188.476 126.093C187.888 126.064 187.309 125.937 186.762 125.717L178.254 122.813C178.168 122.326 178.51 121.758 178.671 121.289L179.125 119.936C179.254 119.562 179.404 119.161 179.742 118.959C180.08 118.756 180.615 119.034 180.896 119.257C181.178 119.48 181.391 119.781 181.668 120.011C182.192 120.449 182.883 120.61 183.55 120.761L185.462 121.193C186.156 121.382 186.871 121.477 187.59 121.476C188.123 119.843 189.136 118.401 189.71 116.781C189.887 116.282 190.021 115.77 190.205 115.275C190.613 114.152 191.257 113.134 191.895 112.127C192.214 111.619 192.561 111.088 193.099 110.826C193.435 110.669 193.814 110.632 194.174 110.719C194.534 110.807 194.854 111.015 195.081 111.309Z" fill="#2F2E41"/>
<path d="M193.673 104.808C193.642 104.544 193.56 104.289 193.432 104.056C193.365 103.94 193.263 103.849 193.141 103.795C193.018 103.741 192.882 103.727 192.752 103.755C192.353 103.881 192.219 104.503 191.802 104.523C191.52 104.537 191.318 104.25 191.23 103.979C191.142 103.708 191.094 103.405 190.883 103.213C190.736 103.103 190.568 103.025 190.389 102.985C189.42 102.678 188.42 102.108 188.098 101.14C188.022 100.944 188.004 100.73 188.046 100.523C188.193 99.9102 188.953 99.7279 189.531 99.5047C190.11 99.2815 190.665 98.9056 191.232 98.6208C191.799 98.3361 192.457 98.1288 193.081 98.2746C193.397 98.3753 193.708 98.4924 194.013 98.6254C194.952 98.9511 196.102 98.7985 196.83 99.4796C197.148 99.8187 197.381 100.229 197.51 100.676C198.018 102.09 198.341 103.771 197.499 105.017C196.98 105.785 196.476 106.662 195.478 106.753C194.317 106.856 193.856 105.792 193.673 104.808Z" fill="#2F2E41"/>
<g opacity="0.1">
<path opacity="0.1" d="M191.899 103.496C191.811 103.227 191.763 102.922 191.554 102.73C191.407 102.62 191.239 102.542 191.06 102.503C190.089 102.195 189.091 101.626 188.767 100.657C188.693 100.46 188.675 100.246 188.717 100.04C188.74 99.943 188.781 99.8511 188.837 99.769C188.467 99.9307 188.145 100.145 188.055 100.523C188.013 100.73 188.031 100.944 188.107 101.14C188.429 102.108 189.429 102.678 190.398 102.985C190.577 103.025 190.745 103.103 190.892 103.213C191.103 103.405 191.148 103.71 191.239 103.979C191.33 104.247 191.529 104.537 191.811 104.523C192.092 104.509 192.228 104.252 192.407 104.033C192.16 104.004 191.981 103.744 191.899 103.496Z" fill="black"/>
<path opacity="0.1" d="M196.145 106.266C194.979 106.373 194.519 105.309 194.33 104.325C194.306 104.062 194.228 103.808 194.104 103.575C194.036 103.459 193.934 103.368 193.812 103.313C193.69 103.259 193.554 103.245 193.423 103.272C193.208 103.341 193.069 103.555 192.922 103.728C193.026 103.738 193.126 103.772 193.215 103.826C193.304 103.881 193.379 103.956 193.435 104.045C193.562 104.277 193.644 104.533 193.675 104.796C193.859 105.781 194.319 106.847 195.49 106.737C195.952 106.688 196.379 106.466 196.687 106.115C196.516 106.196 196.333 106.246 196.145 106.266Z" fill="black"/>
</g>
<path d="M57.5854 87.1968C47.2473 85.3744 35.2285 85.6933 22.2707 87.1968C24.8994 72.2258 25.0219 57.5602 22.2707 43.2476H57.5854C60.1937 57.7802 60.1937 72.6642 57.5854 87.1968Z" fill="white"/>
<path d="M47.0499 40.7418H34.7657V44.7898H47.0499V40.7418Z" fill="#3F3D56"/>
<path d="M109.777 98.7347H88.0032V101.696H109.777V98.7347Z" fill="#6C63FF"/>
<path d="M109.777 104.885H88.0032V107.847H109.777V104.885Z" fill="#6C63FF"/>
<path d="M138.809 9.89331H117.035V12.8547H138.809V9.89331Z" fill="#6C63FF"/>
<path d="M138.809 16.0439H117.035V19.0052H138.809V16.0439Z" fill="#6C63FF"/>
<path d="M51.7132 51.3527H29.9392V54.314H51.7132V51.3527Z" fill="#6C63FF"/>
<path d="M28.9322 164.313L33.2734 161.751C32.6863 160.743 31.9358 159.842 31.0529 159.083L22.8627 161.641L29.2815 157.851C27.6926 156.976 25.9044 156.533 24.0929 156.564C22.2815 156.594 20.5092 157.098 18.9505 158.026C17.3919 158.953 16.1006 160.273 15.2037 161.853C14.3068 163.434 13.8353 165.223 13.8356 167.042C13.8356 172.831 18.5056 173.031 24.2689 173.031C30.0322 173.031 34.7023 172.831 34.7023 167.042C34.7043 165.578 34.3991 164.13 33.8064 162.792L28.9322 164.313Z" fill="#8C8C8C"/>
<path opacity="0.1" d="M30.0367 169.94C29.5747 169.475 29.0584 169.067 28.499 168.726C27.7097 168.2 26.8954 167.664 25.9655 167.484C25.1489 167.329 24.3075 167.462 23.4705 167.414C22.027 167.324 20.6682 166.699 19.6578 165.66C19.0658 165.042 18.5986 164.293 17.8864 163.817C17.1175 163.309 16.1422 163.199 15.2304 163.327C14.9658 163.365 14.7038 163.419 14.4457 163.489C14.0361 164.628 13.8274 165.831 13.8287 167.042C13.8287 172.831 18.4988 173.031 24.2621 173.031C27.0587 173.031 29.5967 172.983 31.4702 172.273L31.164 171.696C30.8646 171.065 30.4858 170.475 30.0367 169.94Z" fill="#D7D7D7"/>
<path d="M135.575 155.956L129.816 152.561C130.597 151.226 131.593 150.03 132.765 149.024L143.627 152.416L135.114 147.39C137.222 146.231 139.593 145.642 141.995 145.683C144.398 145.724 146.748 146.392 148.815 147.622C150.882 148.852 152.595 150.602 153.784 152.698C154.973 154.795 155.598 157.167 155.598 159.58C155.598 167.254 149.404 167.519 141.762 167.519C134.121 167.519 127.927 167.254 127.927 159.58C127.921 157.633 128.323 155.708 129.108 153.928L135.575 155.956Z" fill="#949494"/>
<path opacity="0.1" d="M134.107 163.416C134.722 162.8 135.407 162.26 136.149 161.805C137.194 161.111 138.276 160.398 139.508 160.161C140.59 159.953 141.705 160.129 142.806 160.065C144.721 159.949 146.524 159.119 147.863 157.739C148.648 156.921 149.267 155.917 150.213 155.295C151.232 154.611 152.524 154.479 153.733 154.646C154.085 154.698 154.433 154.769 154.777 154.86C155.319 156.372 155.595 157.968 155.593 159.575C155.593 167.25 149.399 167.514 141.758 167.514C138.049 167.514 134.683 167.452 132.198 166.512L132.613 165.733C133.011 164.9 133.514 164.122 134.107 163.416Z" fill="black"/>
</g>
<defs>
<linearGradient id="paint0_linear" x1="194.2" y1="172.439" x2="191.172" y2="97.6964" gradientUnits="userSpaceOnUse">
<stop stop-color="#808080" stop-opacity="0.25"/>
<stop offset="0.54" stop-color="#808080" stop-opacity="0.12"/>
<stop offset="1" stop-color="#808080" stop-opacity="0.1"/>
</linearGradient>
<clipPath id="clip0">
<rect width="224.317" height="178.009" fill="white"/>
</clipPath>
</defs>
</svg>
